<svg fill="#0D4CAB" id="Capa_1" enable-background="new 0 0 512 512" height="512" viewBox="0 0 512 512" width="512" xmlns="http://www.w3.org/2000/svg"><g id="Love_Messages_82_"><g><path d="m451 512h-390v-512h390zm-360-30h330v-452h-330z"/></g><g><path d="m151 271h210v30h-210z"/></g><g><path d="m151 331h210v30h-210z"/></g><g><path d="m151 391h210v30h-210z"/></g><g><path d="m256 245.526c-9.545-7.891-10.077-8.564-32.805-27.01-41.913-34.014-72.195-58.59-72.195-95.546 0-29.083 15.376-51.133 41.132-58.983 22.137-6.747 46.634-1.456 63.884 12.58 17.189-13.92 41.592-19.142 63.667-12.414 25.872 7.885 41.317 29.873 41.317 58.817 0 36.956-30.282 61.532-72.195 95.546-22.272 18.076-24.649 20.267-32.805 27.01zm-55.121-152.842c-9.069 2.764-19.879 10.262-19.879 30.286 0 25.562 31.127 47.602 75 83.573 43.907-35.999 75-58.05 75-83.573 0-19.841-10.911-27.331-20.063-30.12-15.391-4.691-34.053 1.466-42.487 14.017l-12.45 18.526-12.45-18.527c-8.486-12.628-27.218-18.893-42.671-14.182z"/></g></g></svg>