<?xml version="1.0"?>
<svg fill="#0D4CAB" xmlns="http://www.w3.org/2000/svg" width="512" height="512" viewBox="0 0 512 512"><g><path d="M496,88H48a8,8,0,0,0-8,8v24H16a8,8,0,0,0-8,8V432a8,8,0,0,0,8,8H464a8,8,0,0,0,8-8V408h24a8,8,0,0,0,8-8V96A8,8,0,0,0,496,88ZM456,424H24V136H456Zm32-32H472V128a8,8,0,0,0-8-8H56V104H488Z"/><path d="M432,152H352a8,8,0,0,0-8,8v88a8,8,0,0,0,8,8h80a8,8,0,0,0,8-8V160A8,8,0,0,0,432,152Zm-8,88H360V168h64Z"/><path d="M432,368H400a8,8,0,0,0,0,16h32a8,8,0,0,0,0-16Z"/><path d="M432,392H344a8,8,0,0,0,0,16h88a8,8,0,0,0,0-16Z"/><path d="M240,152a8,8,0,0,0-8,8V400a8,8,0,0,0,16,0V160A8,8,0,0,0,240,152Z"/><path d="M72,184a40,40,0,1,0,40,40A40.045,40.045,0,0,0,72,184Zm0,64a24,24,0,1,1,24-24A24.028,24.028,0,0,1,72,248Z"/><path d="M200,220c-3.578,0-4.91-.888-7.563-2.656C189.054,215.088,184.421,212,176,212s-13.056,3.089-16.438,5.344C156.907,219.112,155.576,220,152,220s-4.908-.888-7.561-2.656C141.055,215.089,136.422,212,128,212a8,8,0,0,0,0,16c3.577,0,4.908.888,7.562,2.656C138.943,232.911,143.576,236,152,236s13.055-3.088,16.438-5.344C171.089,228.888,172.421,228,176,228s4.909.888,7.563,2.656C186.944,232.911,191.577,236,200,236a8,8,0,0,0,0-16Z"/><path d="M200,196c-3.578,0-4.91-.888-7.563-2.656C189.054,191.088,184.421,188,176,188s-13.056,3.089-16.438,5.344C156.907,195.112,155.576,196,152,196s-4.908-.888-7.561-2.656C141.055,191.089,136.422,188,128,188a8,8,0,0,0,0,16c3.577,0,4.908.888,7.562,2.656C138.943,208.911,143.576,212,152,212s13.055-3.088,16.438-5.344C171.089,204.888,172.421,204,176,204s4.909.888,7.563,2.656C186.944,208.911,191.577,212,200,212a8,8,0,0,0,0-16Z"/><path d="M200,244c-3.578,0-4.91-.888-7.563-2.656C189.054,239.088,184.421,236,176,236s-13.056,3.089-16.438,5.344C156.907,243.112,155.576,244,152,244s-4.908-.888-7.561-2.656C141.055,239.089,136.422,236,128,236a8,8,0,0,0,0,16c3.577,0,4.908.888,7.562,2.656C138.943,256.911,143.576,260,152,260s13.055-3.088,16.438-5.344C171.089,252.888,172.421,252,176,252s4.909.888,7.563,2.656C186.944,256.911,191.577,260,200,260a8,8,0,0,0,0-16Z"/></g></svg>
