<svg xmlns="http://www.w3.org/2000/svg" width="53" height="53" viewBox="0 0 53 53">
  <g id="ca" transform="translate(-191 -221)">
    <circle id="Ellipse_70" data-name="Ellipse 70" cx="26.5" cy="26.5" r="26.5" transform="translate(191 221)" fill="#becdf2"/>
    <g id="trend" transform="translate(199 229)">
      <circle id="Ellipse_74" data-name="Ellipse 74" cx="14" cy="14" r="14" transform="translate(5 5)" fill="#91e8e3"/>
      <path id="Path_2883" data-name="Path 2883" d="M3,26.515l2.814,3.377,10.132-9.006L18.76,23.7,32.832,9.629l2.814,2.814V4H27.2l2.814,2.814L18.76,18.072l-2.814-2.814Z" transform="translate(-0.437 -0.874)" fill="#ef5656"/>
      <path id="Path_2884" data-name="Path 2884" d="M23.939,38.407A14.069,14.069,0,0,0,33.965,14.465L13.559,33.834a14.033,14.033,0,0,0,10.38,4.572Z" transform="translate(-5.053 -5.449)" fill="#5facf9"/>
      <path id="Path_2885" data-name="Path 2885" d="M19.211,45.629h2.251A1.126,1.126,0,0,0,22.588,44.5V43.377a1.126,1.126,0,0,0-1.126-1.126,1.126,1.126,0,0,1-1.126-1.126A1.126,1.126,0,0,0,19.211,40H15.974l-4.218,3.75a14.147,14.147,0,0,0,4.773,4.161l.43-.031A2.251,2.251,0,0,1,19.211,45.629Z" transform="translate(-4.265 -16.611)" fill="#8eed51"/>
      <path id="Path_2886" data-name="Path 2886" d="M21.849,10.658a.844.844,0,0,1,.844-.844h2.251a.844.844,0,0,0,.844-.844V7.416a14.043,14.043,0,0,0-15.723,6.9h4.748a.844.844,0,0,0,.844-.844V11.783a.844.844,0,0,1,.844-.844h.563a.844.844,0,0,1,.844.844.844.844,0,0,0,.844.844H21a.844.844,0,0,0,.844-.844Z" transform="translate(-3.526 -2.185)" fill="#57bc15"/>
      <path id="Path_2887" data-name="Path 2887" d="M11.8,24H7.751a14.022,14.022,0,0,0-.726,3.94H9.544a.844.844,0,0,0,.844-.844.844.844,0,0,1,.844-.844H11.8a.844.844,0,0,0,.844-.844v-.563A.844.844,0,0,0,11.8,24Z" transform="translate(-2.197 -9.617)" fill="#57bc15"/>
      <path id="Path_2888" data-name="Path 2888" d="M15.307,46.6l0,0q.312.243.638.468l.01.007q.326.225.664.432h0q.342.208.7.4l.43-.031A2.251,2.251,0,0,1,20,45.629h2.251A1.126,1.126,0,0,0,23.377,44.5V43.377a1.126,1.126,0,0,0-1.126-1.126,1.126,1.126,0,0,1-1.126-1.126A1.126,1.126,0,0,0,20,40H18.824l-5.262,4.994a14.151,14.151,0,0,0,1.745,1.61Z" transform="translate(-5.054 -16.611)" fill="#59bc19"/>
      <path id="Path_2889" data-name="Path 2889" d="M55,57h1.126v1.126H55Z" transform="translate(-23.168 -24.042)" fill="#efd725"/>
      <path id="Path_2890" data-name="Path 2890" d="M60,60h1.126v1.126H60Z" transform="translate(-25.354 -25.354)" fill="#efd725"/>
      <path id="Path_2891" data-name="Path 2891" d="M58,52h1.126v1.126H58Z" transform="translate(-24.479 -21.857)" fill="#efd725"/>
      <path id="Path_2892" data-name="Path 2892" d="M50,60h1.126v1.126H50Z" transform="translate(-20.982 -25.354)" fill="#efd725"/>
      <path id="Path_2893" data-name="Path 2893" d="M60,46h1.126v1.126H60Z" transform="translate(-25.354 -19.234)" fill="#efd725"/>
      <g id="Group_326" data-name="Group 326" transform="translate(2 2)">
        <path id="Path_2894" data-name="Path 2894" d="M2,2H3.126V3.126H2Z" transform="translate(-2 -2)" fill="#fff364"/>
        <path id="Path_2895" data-name="Path 2895" d="M7,4H8.126V5.126H7Z" transform="translate(-4.186 -2.874)" fill="#fff364"/>
        <path id="Path_2896" data-name="Path 2896" d="M3,8H4.126V9.126H3Z" transform="translate(-2.437 -4.623)" fill="#fff364"/>
        <path id="Path_2897" data-name="Path 2897" d="M13,2h1.126V3.126H13Z" transform="translate(-6.808 -2)" fill="#fff364"/>
        <path id="Path_2898" data-name="Path 2898" d="M7,10H8.126v1.126H7Z" transform="translate(-4.186 -5.497)" fill="#fff364"/>
        <path id="Path_2899" data-name="Path 2899" d="M2,14H3.126v1.126H2Z" transform="translate(-2 -7.246)" fill="#fff364"/>
      </g>
      <path id="Path_2900" data-name="Path 2900" d="M34.659,44a.844.844,0,0,0,0,1.689h1.407a1.126,1.126,0,1,1,0,2.251H34.378A3.377,3.377,0,0,0,31,51.3c.187.008.373.017.562.017A14.067,14.067,0,0,0,43.91,44Z" transform="translate(-12.678 -18.36)" fill="#59bc19"/>
      <path id="Path_2901" data-name="Path 2901" d="M49.7,23.563h0c-.065-.191-.141-.376-.214-.563H44.814l-2.251,2.251H45.1a1.407,1.407,0,1,1,0,2.814h-1.97a1.126,1.126,0,1,0,0,2.251h7.136a14.088,14.088,0,0,0-.557-6.754Z" transform="translate(-17.485 -9.18)" fill="#59bc19"/>
      <path id="Path_2902" data-name="Path 2902" d="M29.476,23.7,43.547,9.629l2.814,2.814V4h-.178L27.513,21.738Z" transform="translate(-11.153 -0.874)" fill="#e54141"/>
    </g>
  </g>
</svg>
