<svg xmlns="http://www.w3.org/2000/svg" width="68.167" height="97.968" viewBox="0 0 68.167 97.968">
  <g id="coins" transform="translate(-1471.326 -1030.314)">
    <g id="Group_93" data-name="Group 93" transform="translate(1471.326 1066.261)">
      <g id="Group_91" data-name="Group 91" transform="translate(22.936 0)">
        <g id="Group_83" data-name="Group 83" transform="translate(3.079 49.086)">
          <path id="Path_90" data-name="Path 90" d="M1558.5,1187.655v2.912a2.061,2.061,0,0,1-2.061,2.06h-35.544a2.061,2.061,0,0,1-2.061-2.06v-2.912a2.061,2.061,0,0,1,2.061-2.061h35.544a2.061,2.061,0,0,1,2.061,2.061Z" transform="translate(-1518.832 -1185.594)" fill="#fad332"/>
          <rect id="Rectangle_34" data-name="Rectangle 34" width="1.032" height="7.033" transform="translate(1.97)" fill="#faba23"/>
          <rect id="Rectangle_35" data-name="Rectangle 35" width="1.032" height="7.033" transform="translate(6.3)" fill="#faba23"/>
          <rect id="Rectangle_36" data-name="Rectangle 36" width="1.032" height="7.033" transform="translate(10.629)" fill="#faba23"/>
          <rect id="Rectangle_37" data-name="Rectangle 37" width="1.032" height="7.033" transform="translate(14.959)" fill="#faba23"/>
          <rect id="Rectangle_38" data-name="Rectangle 38" width="1.032" height="7.033" transform="translate(19.289)" fill="#faba23"/>
          <rect id="Rectangle_39" data-name="Rectangle 39" width="1.032" height="7.033" transform="translate(23.618)" fill="#faba23"/>
          <rect id="Rectangle_40" data-name="Rectangle 40" width="1.032" height="7.033" transform="translate(27.948)" fill="#faba23"/>
          <rect id="Rectangle_41" data-name="Rectangle 41" width="1.032" height="7.033" transform="translate(32.277)" fill="#faba23"/>
          <rect id="Rectangle_42" data-name="Rectangle 42" width="1.032" height="7.033" transform="translate(36.607)" fill="#faba23"/>
          <path id="Path_91" data-name="Path 91" d="M1558.413,1186.324h-38.692a2.056,2.056,0,0,1,1.574-.73h35.544A2.057,2.057,0,0,1,1558.413,1186.324Z" transform="translate(-1519.234 -1185.594)" fill="#faba23"/>
          <path id="Path_92" data-name="Path 92" d="M1558.413,1197.1h-38.692a2.057,2.057,0,0,0,1.574.73h35.544A2.057,2.057,0,0,0,1558.413,1197.1Z" transform="translate(-1519.234 -1190.8)" fill="#faba23"/>
        </g>
        <g id="Group_84" data-name="Group 84" transform="translate(5.565 42.052)">
          <path id="Path_93" data-name="Path 93" d="M1563.038,1174.811v2.912a2.061,2.061,0,0,1-2.061,2.061h-35.544a2.061,2.061,0,0,1-2.061-2.061v-2.912a2.061,2.061,0,0,1,2.061-2.061h35.544a2.059,2.059,0,0,1,2.061,2.061Z" transform="translate(-1523.372 -1172.75)" fill="#fad332"/>
          <rect id="Rectangle_43" data-name="Rectangle 43" width="1.032" height="7.033" transform="translate(1.97 0)" fill="#faba23"/>
          <rect id="Rectangle_44" data-name="Rectangle 44" width="1.032" height="7.033" transform="translate(6.3 0)" fill="#faba23"/>
          <rect id="Rectangle_45" data-name="Rectangle 45" width="1.032" height="7.033" transform="translate(10.629 0)" fill="#faba23"/>
          <rect id="Rectangle_46" data-name="Rectangle 46" width="1.032" height="7.033" transform="translate(14.959 0)" fill="#faba23"/>
          <rect id="Rectangle_47" data-name="Rectangle 47" width="1.032" height="7.033" transform="translate(19.289 0)" fill="#faba23"/>
          <rect id="Rectangle_48" data-name="Rectangle 48" width="1.032" height="7.033" transform="translate(23.618 0)" fill="#faba23"/>
          <rect id="Rectangle_49" data-name="Rectangle 49" width="1.032" height="7.033" transform="translate(27.948 0)" fill="#faba23"/>
          <rect id="Rectangle_50" data-name="Rectangle 50" width="1.032" height="7.033" transform="translate(32.277 0)" fill="#faba23"/>
          <rect id="Rectangle_51" data-name="Rectangle 51" width="1.032" height="7.033" transform="translate(36.607 0)" fill="#faba23"/>
          <path id="Path_94" data-name="Path 94" d="M1562.954,1173.48h-38.693a2.057,2.057,0,0,1,1.574-.73h35.544A2.059,2.059,0,0,1,1562.954,1173.48Z" transform="translate(-1523.774 -1172.75)" fill="#faba23"/>
          <path id="Path_95" data-name="Path 95" d="M1562.954,1184.259h-38.693a2.055,2.055,0,0,0,1.574.73h35.544A2.057,2.057,0,0,0,1562.954,1184.259Z" transform="translate(-1523.774 -1177.957)" fill="#faba23"/>
        </g>
        <g id="Group_85" data-name="Group 85" transform="translate(3.637 35.031)">
          <path id="Path_96" data-name="Path 96" d="M1559.518,1161.99v2.912a2.061,2.061,0,0,1-2.061,2.061h-35.545a2.061,2.061,0,0,1-2.061-2.061v-2.912a2.06,2.06,0,0,1,2.061-2.061h35.545a2.059,2.059,0,0,1,2.061,2.061Z" transform="translate(-1519.852 -1159.929)" fill="#fad332"/>
          <rect id="Rectangle_52" data-name="Rectangle 52" width="1.032" height="7.033" transform="translate(1.97 0)" fill="#faba23"/>
          <rect id="Rectangle_53" data-name="Rectangle 53" width="1.032" height="7.033" transform="translate(6.3 0)" fill="#faba23"/>
          <rect id="Rectangle_54" data-name="Rectangle 54" width="1.032" height="7.033" transform="translate(10.629 0)" fill="#faba23"/>
          <rect id="Rectangle_55" data-name="Rectangle 55" width="1.032" height="7.033" transform="translate(14.959 0)" fill="#faba23"/>
          <rect id="Rectangle_56" data-name="Rectangle 56" width="1.032" height="7.033" transform="translate(19.288 0)" fill="#faba23"/>
          <rect id="Rectangle_57" data-name="Rectangle 57" width="1.032" height="7.033" transform="translate(23.618 0)" fill="#faba23"/>
          <rect id="Rectangle_58" data-name="Rectangle 58" width="1.032" height="7.033" transform="translate(27.948 0)" fill="#faba23"/>
          <rect id="Rectangle_59" data-name="Rectangle 59" width="1.032" height="7.033" transform="translate(32.277 0)" fill="#faba23"/>
          <rect id="Rectangle_60" data-name="Rectangle 60" width="1.032" height="7.033" transform="translate(36.607 0)" fill="#faba23"/>
          <path id="Path_97" data-name="Path 97" d="M1559.434,1160.659h-38.693a2.057,2.057,0,0,1,1.574-.73h35.544A2.058,2.058,0,0,1,1559.434,1160.659Z" transform="translate(-1520.254 -1159.929)" fill="#faba23"/>
          <path id="Path_98" data-name="Path 98" d="M1559.434,1171.439h-38.693a2.057,2.057,0,0,0,1.574.731h35.544A2.058,2.058,0,0,0,1559.434,1171.439Z" transform="translate(-1520.254 -1165.136)" fill="#faba23"/>
        </g>
        <g id="Group_86" data-name="Group 86" transform="translate(4.431 28.139)">
          <path id="Path_99" data-name="Path 99" d="M1560.967,1149.4v2.912a2.061,2.061,0,0,1-2.061,2.061h-35.545a2.061,2.061,0,0,1-2.061-2.061V1149.4a2.059,2.059,0,0,1,2.061-2.06h35.545a2.06,2.06,0,0,1,2.061,2.06Z" transform="translate(-1521.301 -1147.342)" fill="#fad332"/>
          <rect id="Rectangle_61" data-name="Rectangle 61" width="1.032" height="7.033" transform="translate(1.97)" fill="#faba23"/>
          <rect id="Rectangle_62" data-name="Rectangle 62" width="1.032" height="7.033" transform="translate(6.3)" fill="#faba23"/>
          <rect id="Rectangle_63" data-name="Rectangle 63" width="1.032" height="7.033" transform="translate(10.629)" fill="#faba23"/>
          <rect id="Rectangle_64" data-name="Rectangle 64" width="1.032" height="7.033" transform="translate(14.959)" fill="#faba23"/>
          <rect id="Rectangle_65" data-name="Rectangle 65" width="1.032" height="7.033" transform="translate(19.288)" fill="#faba23"/>
          <rect id="Rectangle_66" data-name="Rectangle 66" width="1.032" height="7.033" transform="translate(23.618)" fill="#faba23"/>
          <rect id="Rectangle_67" data-name="Rectangle 67" width="1.032" height="7.033" transform="translate(27.948)" fill="#faba23"/>
          <rect id="Rectangle_68" data-name="Rectangle 68" width="1.032" height="7.033" transform="translate(32.277)" fill="#faba23"/>
          <rect id="Rectangle_69" data-name="Rectangle 69" width="1.032" height="7.033" transform="translate(36.607)" fill="#faba23"/>
          <path id="Path_100" data-name="Path 100" d="M1560.882,1148.072h-38.693a2.058,2.058,0,0,1,1.574-.73h35.545A2.056,2.056,0,0,1,1560.882,1148.072Z" transform="translate(-1521.703 -1147.342)" fill="#faba23"/>
          <path id="Path_101" data-name="Path 101" d="M1560.882,1158.851h-38.693a2.059,2.059,0,0,0,1.574.731h35.545A2.057,2.057,0,0,0,1560.882,1158.851Z" transform="translate(-1521.703 -1152.548)" fill="#faba23"/>
        </g>
        <g id="Group_87" data-name="Group 87" transform="translate(0 20.999)">
          <path id="Path_102" data-name="Path 102" d="M1552.875,1136.366v2.912a2.061,2.061,0,0,1-2.061,2.061H1515.27a2.06,2.06,0,0,1-2.06-2.061v-2.912a2.06,2.06,0,0,1,2.06-2.061h35.544a2.06,2.06,0,0,1,2.061,2.061Z" transform="translate(-1513.21 -1134.305)" fill="#fad332"/>
          <rect id="Rectangle_70" data-name="Rectangle 70" width="1.032" height="7.033" transform="translate(1.97 0)" fill="#faba23"/>
          <rect id="Rectangle_71" data-name="Rectangle 71" width="1.032" height="7.033" transform="translate(6.299 0)" fill="#faba23"/>
          <rect id="Rectangle_72" data-name="Rectangle 72" width="1.032" height="7.033" transform="translate(10.629 0)" fill="#faba23"/>
          <rect id="Rectangle_73" data-name="Rectangle 73" width="1.032" height="7.033" transform="translate(14.958 0)" fill="#faba23"/>
          <rect id="Rectangle_74" data-name="Rectangle 74" width="1.032" height="7.033" transform="translate(19.288 0)" fill="#faba23"/>
          <rect id="Rectangle_75" data-name="Rectangle 75" width="1.032" height="7.033" transform="translate(23.618 0)" fill="#faba23"/>
          <rect id="Rectangle_76" data-name="Rectangle 76" width="1.032" height="7.033" transform="translate(27.947 0)" fill="#faba23"/>
          <rect id="Rectangle_77" data-name="Rectangle 77" width="1.032" height="7.033" transform="translate(32.277 0)" fill="#faba23"/>
          <rect id="Rectangle_78" data-name="Rectangle 78" width="1.032" height="7.033" transform="translate(36.607 0)" fill="#faba23"/>
          <path id="Path_103" data-name="Path 103" d="M1552.791,1135.036H1514.1a2.057,2.057,0,0,1,1.574-.73h35.544A2.056,2.056,0,0,1,1552.791,1135.036Z" transform="translate(-1513.612 -1134.305)" fill="#faba23"/>
          <path id="Path_104" data-name="Path 104" d="M1552.791,1145.814H1514.1a2.055,2.055,0,0,0,1.574.73h35.544A2.055,2.055,0,0,0,1552.791,1145.814Z" transform="translate(-1513.612 -1139.511)" fill="#faba23"/>
        </g>
        <g id="Group_88" data-name="Group 88" transform="translate(4.36 14.049)">
          <path id="Path_105" data-name="Path 105" d="M1560.838,1123.673v2.912a2.061,2.061,0,0,1-2.061,2.061h-35.545a2.061,2.061,0,0,1-2.06-2.061v-2.912a2.059,2.059,0,0,1,2.06-2.061h35.545a2.061,2.061,0,0,1,2.061,2.061Z" transform="translate(-1521.172 -1121.612)" fill="#fad332"/>
          <rect id="Rectangle_79" data-name="Rectangle 79" width="1.032" height="7.033" transform="translate(1.97 0)" fill="#faba23"/>
          <rect id="Rectangle_80" data-name="Rectangle 80" width="1.032" height="7.033" transform="translate(6.3 0)" fill="#faba23"/>
          <rect id="Rectangle_81" data-name="Rectangle 81" width="1.032" height="7.033" transform="translate(10.629 0)" fill="#faba23"/>
          <rect id="Rectangle_82" data-name="Rectangle 82" width="1.032" height="7.033" transform="translate(14.959 0)" fill="#faba23"/>
          <rect id="Rectangle_83" data-name="Rectangle 83" width="1.032" height="7.033" transform="translate(19.288 0)" fill="#faba23"/>
          <rect id="Rectangle_84" data-name="Rectangle 84" width="1.032" height="7.033" transform="translate(23.618 0)" fill="#faba23"/>
          <rect id="Rectangle_85" data-name="Rectangle 85" width="1.032" height="7.033" transform="translate(27.947 0)" fill="#faba23"/>
          <rect id="Rectangle_86" data-name="Rectangle 86" width="1.032" height="7.033" transform="translate(32.277 0)" fill="#faba23"/>
          <rect id="Rectangle_87" data-name="Rectangle 87" width="1.032" height="7.033" transform="translate(36.607 0)" fill="#faba23"/>
          <path id="Path_106" data-name="Path 106" d="M1560.753,1122.343H1522.06a2.056,2.056,0,0,1,1.574-.73h35.545A2.057,2.057,0,0,1,1560.753,1122.343Z" transform="translate(-1521.574 -1121.612)" fill="#faba23"/>
          <path id="Path_107" data-name="Path 107" d="M1560.753,1133.121H1522.06a2.057,2.057,0,0,0,1.574.73h35.545A2.057,2.057,0,0,0,1560.753,1133.121Z" transform="translate(-1521.574 -1126.818)" fill="#faba23"/>
        </g>
        <g id="Group_89" data-name="Group 89" transform="translate(2.814 6.994)">
          <path id="Path_108" data-name="Path 108" d="M1558.014,1110.79v2.912a2.061,2.061,0,0,1-2.061,2.061h-35.545a2.061,2.061,0,0,1-2.06-2.061v-2.912a2.059,2.059,0,0,1,2.06-2.06h35.545a2.061,2.061,0,0,1,2.061,2.06Z" transform="translate(-1518.348 -1108.73)" fill="#fad332"/>
          <rect id="Rectangle_88" data-name="Rectangle 88" width="1.032" height="7.033" transform="translate(1.97 0)" fill="#faba23"/>
          <rect id="Rectangle_89" data-name="Rectangle 89" width="1.032" height="7.033" transform="translate(6.3 0)" fill="#faba23"/>
          <rect id="Rectangle_90" data-name="Rectangle 90" width="1.032" height="7.033" transform="translate(10.629 0)" fill="#faba23"/>
          <rect id="Rectangle_91" data-name="Rectangle 91" width="1.032" height="7.033" transform="translate(14.959 0)" fill="#faba23"/>
          <rect id="Rectangle_92" data-name="Rectangle 92" width="1.032" height="7.033" transform="translate(19.288 0)" fill="#faba23"/>
          <rect id="Rectangle_93" data-name="Rectangle 93" width="1.032" height="7.033" transform="translate(23.618 0)" fill="#faba23"/>
          <rect id="Rectangle_94" data-name="Rectangle 94" width="1.032" height="7.033" transform="translate(27.947 0)" fill="#faba23"/>
          <rect id="Rectangle_95" data-name="Rectangle 95" width="1.032" height="7.033" transform="translate(32.277 0)" fill="#faba23"/>
          <rect id="Rectangle_96" data-name="Rectangle 96" width="1.032" height="7.033" transform="translate(36.607 0)" fill="#faba23"/>
          <path id="Path_109" data-name="Path 109" d="M1557.929,1109.46h-38.693a2.056,2.056,0,0,1,1.574-.73h35.545A2.055,2.055,0,0,1,1557.929,1109.46Z" transform="translate(-1518.75 -1108.73)" fill="#faba23"/>
          <path id="Path_110" data-name="Path 110" d="M1557.929,1120.239h-38.693a2.058,2.058,0,0,0,1.574.73h35.545A2.057,2.057,0,0,0,1557.929,1120.239Z" transform="translate(-1518.75 -1113.937)" fill="#faba23"/>
        </g>
        <g id="Group_90" data-name="Group 90" transform="translate(4.938)">
          <path id="Path_111" data-name="Path 111" d="M1561.892,1098.018v2.912a2.06,2.06,0,0,1-2.06,2.061h-35.544a2.061,2.061,0,0,1-2.061-2.061v-2.912a2.059,2.059,0,0,1,2.061-2.06h35.544a2.059,2.059,0,0,1,2.06,2.06Z" transform="translate(-1522.227 -1095.958)" fill="#fad332"/>
          <rect id="Rectangle_97" data-name="Rectangle 97" width="1.032" height="7.033" transform="translate(1.97)" fill="#faba23"/>
          <rect id="Rectangle_98" data-name="Rectangle 98" width="1.032" height="7.033" transform="translate(6.3)" fill="#faba23"/>
          <rect id="Rectangle_99" data-name="Rectangle 99" width="1.032" height="7.033" transform="translate(10.629)" fill="#faba23"/>
          <rect id="Rectangle_100" data-name="Rectangle 100" width="1.032" height="7.033" transform="translate(14.959)" fill="#faba23"/>
          <rect id="Rectangle_101" data-name="Rectangle 101" width="1.032" height="7.033" transform="translate(19.288)" fill="#faba23"/>
          <rect id="Rectangle_102" data-name="Rectangle 102" width="1.032" height="7.033" transform="translate(23.618)" fill="#faba23"/>
          <rect id="Rectangle_103" data-name="Rectangle 103" width="1.032" height="7.033" transform="translate(27.947)" fill="#faba23"/>
          <rect id="Rectangle_104" data-name="Rectangle 104" width="1.032" height="7.033" transform="translate(32.277)" fill="#faba23"/>
          <rect id="Rectangle_105" data-name="Rectangle 105" width="1.032" height="7.033" transform="translate(36.607)" fill="#faba23"/>
          <path id="Path_112" data-name="Path 112" d="M1561.808,1096.688h-38.693a2.057,2.057,0,0,1,1.574-.73h35.544A2.056,2.056,0,0,1,1561.808,1096.688Z" transform="translate(-1522.629 -1095.958)" fill="#faba23"/>
          <path id="Path_113" data-name="Path 113" d="M1561.808,1107.467h-38.693a2.058,2.058,0,0,0,1.574.73h35.544A2.057,2.057,0,0,0,1561.808,1107.467Z" transform="translate(-1522.629 -1101.164)" fill="#faba23"/>
        </g>
      </g>
      <g id="Group_92" data-name="Group 92" transform="translate(0 8.443)">
        <circle id="Ellipse_27" data-name="Ellipse 27" cx="21.213" cy="21.213" r="21.213" transform="translate(0 13.287) rotate(-18.251)" fill="#faba23"/>
        <path id="Path_114" data-name="Path 114" d="M1522.429,1151.252a17.432,17.432,0,0,1-28.593,7.273,17.687,17.687,0,0,1-1.241-1.311,17.429,17.429,0,0,1,24.012-25.028,17.121,17.121,0,0,1,1.36,1.186,17.452,17.452,0,0,1,4.463,17.88Z" transform="translate(-1479.058 -1119.107)" fill="#fad332"/>
        <path id="Path_115" data-name="Path 115" d="M1516.607,1132.185l-24.012,25.028a17.462,17.462,0,0,1-4.152-12.232l15.77-16.437a17.488,17.488,0,0,1,12.394,3.641Z" transform="translate(-1479.058 -1119.107)" fill="#faee6c"/>
        <path id="Path_116" data-name="Path 116" d="M1525.411,1141.233l-23.171,24.153a17.262,17.262,0,0,1-3.928-2.809l24.13-25.153A17.413,17.413,0,0,1,1525.411,1141.233Z" transform="translate(-1483.534 -1123.159)" fill="#faee6c"/>
        <path id="Path_117" data-name="Path 117" d="M1518.108,1127.276c-2.059-.216-2.435-.013-3.359,1.813.23-2.034.027-2.41-1.812-3.359,2.058.216,2.435.013,3.359-1.812C1516.079,1125.975,1516.282,1126.352,1518.108,1127.276Z" transform="translate(-1490.15 -1117.049)" fill="#fff"/>
        <path id="Path_118" data-name="Path 118" d="M1505.471,1187.474c-1.737-.182-2.054-.012-2.834,1.529.193-1.716.022-2.033-1.53-2.834,1.737.182,2.055.011,2.834-1.529C1503.759,1186.377,1503.93,1186.695,1505.471,1187.474Z" transform="translate(-1484.798 -1144.519)" fill="#fff"/>
      </g>
    </g>
    <g id="Group_106" data-name="Group 106" transform="translate(1525.503 1039.848)">
      <path id="Path_126" data-name="Path 126" d="M1580.906,1053.417l-9.768-5.253-.827,1.536h0c-.4.743,1.476,2.527,4.189,3.986s5.235,2.039,5.634,1.3C1580.171,1054.915,1580.906,1053.417,1580.906,1053.417Z" transform="translate(-1570.258 -1047.923)" fill="#faba23"/>
      <path id="Path_127" data-name="Path 127" d="M1581.563,1053.33c-.4.743-2.922.162-5.634-1.3s-4.588-3.243-4.188-3.986,2.922-.162,5.634,1.3S1581.963,1052.588,1581.563,1053.33Z" transform="translate(-1570.904 -1047.724)" fill="#fad332"/>
    </g>
    <g id="Group_107" data-name="Group 107" transform="translate(1482.858 1064.384)">
      <path id="Path_128" data-name="Path 128" d="M1502.27,1093.809l-9.886,1.606q.126.777.252,1.555h0c.122.752,2.447,1,5.192.553s4.872-1.417,4.75-2.168C1502.567,1095.286,1502.27,1093.809,1502.27,1093.809Z" transform="translate(-1492.384 -1093.108)" fill="#faba23"/>
      <path id="Path_129" data-name="Path 129" d="M1502.347,1093.3c.122.751-2,1.722-4.75,2.168s-5.07.2-5.192-.553,2-1.722,4.75-2.169S1502.225,1092.552,1502.347,1093.3Z" transform="translate(-1492.391 -1092.528)" fill="#fad332"/>
    </g>
    <g id="Group_108" data-name="Group 108" transform="translate(1494.833 1043.07)">
      <path id="Path_130" data-name="Path 130" d="M1523.975,1058.481l-8.985-4.425q-.348.706-.7,1.413h0c-.337.683,1.413,2.233,3.908,3.462s4.79,1.672,5.127.988C1523.36,1059.857,1523.975,1058.481,1523.975,1058.481Z" transform="translate(-1514.252 -1053.811)" fill="#faba23"/>
      <path id="Path_131" data-name="Path 131" d="M1524.532,1058.379c-.336.683-2.631.24-5.127-.989s-4.245-2.779-3.908-3.462,2.632-.24,5.127.989S1524.869,1057.7,1524.532,1058.379Z" transform="translate(-1514.796 -1053.608)" fill="#fad332"/>
    </g>
    <g id="Group_109" data-name="Group 109" transform="translate(1480.814 1030.314)">
      <path id="Path_132" data-name="Path 132" d="M1499,1031.654l-10.348,1.68q.131.815.264,1.628h0c.128.786,2.561,1.046,5.435.579s5.1-1.483,4.972-2.269C1499.311,1033.2,1499,1031.654,1499,1031.654Z" transform="translate(-1488.652 -1030.92)" fill="#faba23"/>
      <path id="Path_133" data-name="Path 133" d="M1499.079,1031.126c.128.786-2.1,1.8-4.972,2.269s-5.306.207-5.434-.579,2.1-1.8,4.971-2.269S1498.952,1030.339,1499.079,1031.126Z" transform="translate(-1488.659 -1030.314)" fill="#fad332"/>
    </g>
  </g>
</svg>
