<svg xmlns="http://www.w3.org/2000/svg" viewBox="0 0 65.34 77.56"><defs><style>.cls-1{fill:#f25d57;}.cls-2{fill:#e53a39;}.cls-3{fill:#28c9d9;}.cls-4{fill:#21a3b0;}.cls-5{fill:#94ba22;}.cls-6{fill:#b4d627;}.cls-7{fill:#a2bf23;}.cls-8{fill:#feba11;}.cls-9{fill:#fe9711;}</style></defs><g id="Layer_2" data-name="Layer 2"><g id="Layer_1-2" data-name="Layer 1"><path class="cls-1" d="M9.05,53.37l.46-.47L8,51.35,4.12,55.19l1.55,1.55.56-.56A38.42,38.42,0,0,0,25.89,65v5.7h4.06V61.37A33.44,33.44,0,0,1,9.05,53.37Z"/><path class="cls-2" d="M56.16,6.42l.6-.6L55.21,4.27,51.37,8.11l1.55,1.55.48-.49A31.35,31.35,0,0,1,30,61.37h0v9.29h4.12V65A35.43,35.43,0,0,0,65.34,30.15,34.51,34.51,0,0,0,56.16,6.42Z"/><path class="cls-3" d="M0,30A30,30,0,0,0,30,60h0V0A30,30,0,0,0,0,30Z"/><path class="cls-4" d="M60,30A30,30,0,0,0,30,0h0V60A30,30,0,0,0,60,30Z"/><path class="cls-5" d="M56.36,20.66A24.22,24.22,0,0,0,44.78,3.91,31.25,31.25,0,0,1,50.33,8a29.43,29.43,0,0,1,3.35,3.64,30.06,30.06,0,0,1,4.65,8.58l.45,1.41.1.36c.93,3.74.46,4.74.45,4.75-.36-1.29-.22-2.66-.6-3.94s-1-2.54-1.55-3.82l0,.13c-.25-.11-.53-.62-.53-.62a3.51,3.51,0,0,1-.15,2.22h-.12s0,0,0,0Z"/><path class="cls-6" d="M19.7,34.91c0,.15-.22.15-.36.14l-.08-.13c.11,0,.43,0,.44-.09v.08Z"/><path class="cls-6" d="M16.44,33.67s-.05-.05,0-.05h0v.05Z"/><path class="cls-6" d="M13,35.21a1.56,1.56,0,0,1-.31-.21.55.55,0,0,1,.22,0A.11.11,0,0,1,13,35a1.36,1.36,0,0,1,0,.2Z"/><path class="cls-6" d="M13.9,8.2Zm0,0Z"/><path class="cls-6" d="M20.65,7ZM11,33.12s0,0,0,0,0,0,0,0Zm1.21-9.91-.09.08.09-.08ZM27,13.92h0a.24.24,0,0,0-.12.06h0a.6.6,0,0,1,.11-.06ZM13.38,10.17l-.13.08h0a.54.54,0,0,1,.15-.09Zm.53-2h0l-.12,0s.09,0,.12,0Zm12.48,2a.2.2,0,0,1-.08.08h0l.08-.08ZM24,9.42a.19.19,0,0,1-.12-.05l-.09-.09s-.05-.06-.07-.06c.14,0,.15,0,.28.2Zm-.65-.85h0s-.05,0,0-.05h0s0,.05,0,.06Zm1.51-.25a.9.9,0,0,0-.25.24c0-.23.09-.23.27-.26l0,0Zm-13.21.53ZM22,8.11ZM22.93,10Zm-1.15,3.09Zm-1.4,6.12h0Zm4.47-9.07Zm.59-.28a.08.08,0,0,0,0,0h0l0,0Zm3.31-.43c-.07-.17-.07-.17-.67-.7a.69.69,0,0,1,.3-.17,1,1,0,0,0-.09-.13.06.06,0,0,0,0,0l.16,0c-.18-.17-.25-.42-.46-.56l-.14.07c-.13-.2-.13-.46-.28-.66a.54.54,0,0,0-.3.08v.16h.16L27,7.58c.25-.31.25-.31.3-.42a1.35,1.35,0,0,0-1.05.42l.09.13-.1,0s0-.11,0-.16a2.22,2.22,0,0,1,.66-.5L26.68,7a2,2,0,0,0-1.13.67l.17,0h-.17c0,.05-.06.1-.08.14s.2.2.69.24l-.09.08a4,4,0,0,1-1,.47l.11-.12-.35.24-.11-.1c.36-.28.36-.29.42-.47H25l-.08-.13h-.15c.42-.38.42-.38.38-.61a3.69,3.69,0,0,0,1-.34s-1.72.25-1.91.88l.16.05a4.26,4.26,0,0,1-.94.64,1,1,0,0,1,.25-.25l-.1-.11a3.34,3.34,0,0,0,.58-.2L24.15,8c-.5,0-.57.05-.69.19l.15,0c-.64.42-.89.22-1.07.09a1.09,1.09,0,0,0,.08-.15A.39.39,0,0,0,22,8.11a.82.82,0,0,1-.35.43l0,0a3.69,3.69,0,0,1,.25-.34,3.49,3.49,0,0,1-.85,0A.54.54,0,0,1,21.32,8l.11-.16a1,1,0,0,0-.05-.18c-.24-.13-.54-.07-.76-.25l.23-.13c-.16,0-.16,0-.49.09l.29-.27V7.05c-.37.19-.55.28-2.33-.75a2.41,2.41,0,0,0-1.39-.48c-.59.06-.84.73-1.43.8a1,1,0,0,0,.09-.13c-.45-.17-.62-.07-.73,0v.07h0c-.29.07-.29.07-.38.24a.85.85,0,0,0,.31.13c-1.79.33-1.79.33-2.34.77a1.39,1.39,0,0,0,.4-.06L12.12,8a.56.56,0,0,0,.27.18c-.14.09-.14.09-2.05.49.1.06.25.15,1.84,0-.31.07-.4.1-.52.22a1,1,0,0,0,.85-.19l-.2,0a7.3,7.3,0,0,1,1.42-.46,6.68,6.68,0,0,0-.83.31,3.22,3.22,0,0,1,.88.11l0,0,.19,0a1,1,0,0,1-.19.27c.32,0,.32,0,.44.18-.35.77-1.17,1.14-1.62,1.82.24,0,.24,0,.67-.38a16.35,16.35,0,0,0-1.67,1.95s0-.12,0-.18l-.15,0c-4.73,5.41-4.73,5.41-5.18,7.51-.42,1.91-.48,2-.76,2.13.06.2.06.23-.05,1-.21,1.42-.27,2-.08,2.18.62-1.46.32-3.14,1.13-4.55.22.21.21.29-.12.89a13.39,13.39,0,0,0,.12,7,3.36,3.36,0,0,0,.44.69c.8,1.08.8,1.08,3.27,2.77,1.18.8.12,2.49,1.3,3.3a1.25,1.25,0,0,1,.23-.23l.15.07.06.16a.57.57,0,0,0-.13.08s0,.1,0,.15l.12.1a7.28,7.28,0,0,0,.72-.4c-.27-.7-.85-1.22-1.1-1.93s.08-1.33-.25-2c-.25-.46-.79-.51-1.17-.78,0,0,1.46-2.36,1.17-2.82-.94-.13-.85,1.36-1.84,1.16A1.82,1.82,0,0,1,8.23,27c0-.17,2-3.61,2.84-4,.45-.21.68,0,.88.66h0l.16,0a9.9,9.9,0,0,0,.87-.56c.5.65.5.65.93,3.29l.28-.06c.54-1,.67-2.28,1.36-3.26.52-.74,1.51-.83,2.08-1.49.45-.5.49-1.22,1-1.7,0,0,.12,0,.17-.06a3.59,3.59,0,0,0-.59,1.09c.24-.13.3-.17.72-1a1.16,1.16,0,0,0,0,.18,4.15,4.15,0,0,1,1.12-.89l0,0a.83.83,0,0,1,.35,0,.74.74,0,0,1,.28-.14l.12.1c.32-.06.32-.06.47-.19V18.8l-.13.08-.1-.12c.06-.17.06-.17,1.19-1l-.1.11a15.48,15.48,0,0,0,1.53-.55l-.13.11.15.05c-.82.58-.82.58-.83.74a5.43,5.43,0,0,0,2.38-1.34.83.83,0,0,0-.81.08,2,2,0,0,1-.15-.6,2.76,2.76,0,0,1-.57-.06v0a1,1,0,0,0,.87-.37l-.12-.12a8.83,8.83,0,0,0-2.19.82c1.71-1.05,6.09-.49,5.12-3.15L27,13.4c-.38-.68.47-1.33.07-2a3.2,3.2,0,0,1-1.19.78l0-.16h0a2,2,0,0,1,.17-.75.53.53,0,0,0-.21-.21,1.4,1.4,0,0,1,.09-.17c-.74-.95-1.41.08-1.85.76a8.9,8.9,0,0,1-3,3,1.4,1.4,0,0,1-.09-.17,5,5,0,0,1,.81-1.37.65.65,0,0,0,0-.13A4,4,0,0,0,20.35,12a5.46,5.46,0,0,0,.47-.56l-.13-.07v-.15A11.32,11.32,0,0,1,22.92,10v0l-.27-.14c.4.1.4.1,1.89-.48l-.95.74c1.11.17,1.11.17,1.25.08-.06-.1-.06-.1-.11-.82l-.14.12c0-.07,0-.17,0-.25l.14.11s0,.11,0,.16c.44-.39,1.15-.45,1.3-1.16.48.06.62.08.74-.24a1.31,1.31,0,0,0,.09.34l-.11.11s0,.1.06.15H27a3.14,3.14,0,0,1-.18.31.56.56,0,0,0,.24-.22c0,.06,0,.14,0,.2a7.17,7.17,0,0,0-.67.68c-.91.09-.91.09-1,.18.8,0,.89,1.05,1.62,1.18a1.5,1.5,0,0,0-.16-.64l0,0h0c.21.13.29.41.53.51a2.42,2.42,0,0,1,.13-.46l.08.13c0-.61,0-.61-.11-.82.37-.2.84.08,1.2-.24Z"/><path class="cls-6" d="M12.06,24a.15.15,0,0,1,0-.23.61.61,0,0,1,0,.14c0,.06,0,.08,0,.09Z"/><path class="cls-6" d="M26.15,11.16s-.06,0-.08,0a.1.1,0,0,1,.08,0h0Z"/><path class="cls-6" d="M22.54,57.16c-.1-.06-.12-.09-.11-.1s.06,0,.12.1ZM16.09,34.78a2.83,2.83,0,0,1-.2.28s0,0,0,0h0a1.71,1.71,0,0,1-.11.14l.32-.44ZM29.07,45c.1-.46.32-1.31-.07-1.58-1.21-.83-.68-.68-2-1.12a1.12,1.12,0,0,0-.11-.68c-1.64-.35-1.64-.35-2.05.4,0-.08-2.36-6.73-3.93-4.84,0-1-1.44-2.06-1.92-2.16a9.1,9.1,0,0,1-2.55-1.3l0,.07a3.35,3.35,0,0,1-.59.54,2.36,2.36,0,0,1-.12-.28c.37-.31.37-.31.38-.33-.12-.35-.27-.33-.61-.26-.82.5-1.18,1.44-1.91,2a2,2,0,0,1-.45-.17,20,20,0,0,0,.26,2.32c-1.76.75-.75,4.56-.21,5.79A27.51,27.51,0,0,0,15.3,46.8c.7.83,1.72,1.26,2.47,2a1.62,1.62,0,0,1,.6,1.71,9.45,9.45,0,0,0,1.69,4.08,10.48,10.48,0,0,0,1.71,1.95c0-.15,0-.15-.23-.44h.07a3.16,3.16,0,0,1,.6.71l-.27-.17.44.62c.82.08,1.27.77,1.91,1.14l-.13,0a9.35,9.35,0,0,0,2.18.6l.05-.12c-2.53-1-2.5-2.21-2.49-2.27a.73.73,0,0,1,.25.08c-.2-.22-.52-.27-.7-.5.56-.21.58-.3.62-.44l-.13,0c.85-.14.85-.14,1-.23-.65-.74-.65-.74-.7-.81a.78.78,0,0,0-.05-.14c0,.06.06.14.09.19.83.63,1.24-.82,2-1,.26-.54.39-1.14.68-1.67.41-.75.53-.81,1-1C29.08,50.45,29.07,45,29.07,45Z"/><path class="cls-6" d="M15.9,35.05h0a0,0,0,0,1,0,0,.15.15,0,0,1,0,0Z"/><path class="cls-6" d="M27.8,10.08h0v0h0v0Z"/><path class="cls-7" d="M35.05,6.93ZM30.78,8.26a.76.76,0,0,1-.08.11c-.05,0-.11-.07-.16-.12s.25,0,.24,0Zm3.88-1.1c-.08.1-.08.11,0,.16l-.17-.14s.16,0,.21,0Zm-5.19-.84h0s0,0,0,0Zm5.58-1.13A.28.28,0,0,0,35,5.06h0a2.37,2.37,0,0,1-.76,0,1,1,0,0,1,0,.17h-.08c0-.1,0-.1-.32-.07.09-.06.21-.06.26-.17-.12-.11-.12-.11-1,.07.06,0,.06,0,.07-.09s-.08-.08-.21-.07c-.29.07-.56.23-.85.29-.06,0-.06,0-.2-.08,0,.16.21.1.29.18l0,0c-.52-.11-.52-.11-.51,0s0,0,.11.08l-.16,0A3.09,3.09,0,0,0,30,5.7s0,0,0,0,.11,0,.17,0v.11c-.33.2-.79,0-1.06.33,0,0,0,0,.23.15-.23,0-.23,0-.23.05a.21.21,0,0,0,.06.24,1,1,0,0,0,.61,0,1.45,1.45,0,0,1,.52,0c.14.07.1.23.16.34-.16.33,0,.39,0,.39l0,0c-.05.1-.13.17-.17.27a.27.27,0,0,0,.1-.06c-.1.15-.27.44,0,.38.07,0,.17-.12.2-.17,0,.21.06.3.2.28a.28.28,0,0,0,0,.09c-.05,0-.05,0-.3-.22-.18,0-.41.54-.33.6s.1.06.35,0c-.46.59-.48.65-.46.77l.06,0c-.34.87-.1,1.16.71,2.11a6.72,6.72,0,0,0,2.75-2.79c.57.45,1.15-.23,1.47-.6l0,0c-.18,0-.37,0-.55,0,.23-.06.5,0,.72-.1,0-.07,0-.13-.59-.57.17.08.4.12.34-.06s0-.07-.31-.19c.11-.07.26-.05.34-.18l-.08,0c.2-.1.2-.1.21-.16s0,0-.2-.08c.11-.25-.23-.31-.3-.49.08,0,.23.07.33.15v0C35,6.07,35,6.07,34.92,6s-.17,0-.23,0h.12l0,0c-.15-.23-.22-.14-.29,0V6h0c-.07-.26-.09-.33.25-.53s.28-.17.27-.28ZM35,5.06Z"/><path class="cls-6" d="M35.05,6.37s0,0,0,0,0,0,0,0a.08.08,0,0,1,0,0Z"/><polygon class="cls-6" points="40.49 13.57 40.49 13.57 40.49 13.58 40.49 13.57 40.49 13.57"/><polygon class="cls-6" points="40.42 11.72 40.42 11.72 40.42 11.72 40.42 11.72"/><path class="cls-5" d="M42.05,13.49a2,2,0,0,1,0,.53c.12,0,.36,0,.14.2-.42.36-1,.39-1.46.67,0-.09,0-.09.49-.69-.08,0-.46.11-.59,0s0-.14,0-.21a1.1,1.1,0,0,0,.06-.24c-.22,0-.22,0-.28-.15l0,0a1.32,1.32,0,0,0,0-.78c-.12.09-.27.16-.33.12s0,0-.05-.21,0-.15,0-.18c0,.25,0,.25-.09.28s0,0-.11-.34c-.07.24-.07.24-.12.18s.08-.26.06-.4c0,0,0,0-.05.1s0,.09,0,.12-.06-.26-.1-.38c0,.1,0,.22-.06.31-.13-.13-.11-.32-.21-.45.45-.15.27-.62.46-.89l.11,0c.13.16,0,.6,0,.66s.08,0,.2-.06.18-.09.26,0,1.16,1.65,1.3,1.74c.09-.08.26-.19.33,0Z"/><path class="cls-6" d="M42.67,4.52l.08,0-.07,0,0,0,0,0Z"/><path class="cls-5" d="M44.21,10.46Zm.53-5.17a.7.7,0,0,1-.22-.07,1.58,1.58,0,0,0-.34-.13h0a.91.91,0,0,1,.33.11l.17.08.06,0Zm-.57-.19c0,.1,0,.1.38.3.71.4.72.48.72.5s-.08,0-.23,0c0-.12-.57-.5-1.45-.89a.87.87,0,0,0,.58.1Zm-.83-.45v0h0l0,0ZM58.45,22.12ZM44.78,3.91A23.35,23.35,0,0,0,42,2.58h0l-.31-.05.57.5L42,3c.21.16.45.28.67.42a8.94,8.94,0,0,0-1.31-.61l-.17.15C42,3.9,42,3.9,42.41,4c.15.31.15.31.66.37l-.24.07.23.1c0,.12.06.12.07.13l-.31-.06.48.27a4.25,4.25,0,0,0-1-.31,3,3,0,0,0,1.22.71,1.94,1.94,0,0,0,.57.2,3.22,3.22,0,0,1-.76.09,4,4,0,0,0,.5.27l-.29,0c.09.26,0,.55.11.81l-.18.19A.81.81,0,0,0,43,6.55c.24.17.49.31.74.48v.31a4.4,4.4,0,0,1,.37.38l-.28,0,.21.22c-.4,0-.4,0-1.21-.43a1,1,0,0,1,.45-.27c-.32-.64-1.59-.52-1.77-.48a.75.75,0,0,0-.47-.17l0,.07h0l-.13-.15-.06.16-.27,0c-.17.53-.17.53-.12.77l-.22.17a1.83,1.83,0,0,1,.06.25l.41.12c.38.76-.18,1.61.21,2.37.13.25.6,1.05,1.35.72v-.34a3.9,3.9,0,0,1,1.22,1.54l.36,0c.26-1.51-1.61-2.29-1.3-3.82.48,1.74,1.57,1.31,1.93,1.17l-.35.57a.85.85,0,0,0,.26.47l.12-.25a2.53,2.53,0,0,1,.42.38c-.24,1.43-.24,1.43-.51,1.72,0,0-.66.36-1-.06s-.4-1.07-1-1.32c0,.31.05.38.83,1.54a6.42,6.42,0,0,1-1.38,2.1c0,.37,0,.41-.45.83.41.6,1.28.87,1.33,1.75-.55.5-1.55.26-1.87,1.14-.11.3-.1.35.48,2.67.8,0,3.33.05,2.53-1.59-.37-.75.65-2.19,1.17-2.53.83-.54,2.79,1.95,2.74,2-.16.23-.31.44.19.9.75-.31.37-1.87.37-1.89l.24.06c-.75-.82-2.13-.82-2.55-2,.26-.07.39-.12.76.23a18.14,18.14,0,0,0,3.58,2.42.43.43,0,0,1,0-.05c0-.22,0-.22-.93-1,0-.33,0-.36.48-.57l.23.14c.12.56.12.56.36.73,0,.08,0,.18,0,.26a.84.84,0,0,1,.6.76l.07-.25a1.15,1.15,0,0,0,.29.33,2.86,2.86,0,0,0-.07-.28,1.3,1.3,0,0,0,1.27-.58c1.15,1.54.8,2.37.67,2.59-.7,1.14-2.09.52-3,1.18v.36A11.72,11.72,0,0,0,48,21.46c-.3-.08-.31-.27-.37-1-.07-.92-.54-.88-.75-.87-1.2.08-5,3.22-5,3.26-1.82,1.87-3.5,9.16-2.49,10.83,3,5.09,4.45,4.36,7,3,2.73-1.42,3.61.32,3.7.52l.39,6.42c-.34,2.09-.34,2.09-2.79,8.59l.22.18C54.11,50,59.55,36.8,59.09,28.78c-.23.07-.23.07-1,.72-.64-3.08-3-5.25-4.28-8,.35.47.35.47.59.76a.94.94,0,0,0,0-.5c.76,1,3.27,4.61,3.85,6.85.73-4.58.73-4.58.2-6.51h0a6.49,6.49,0,0,1-.87-1.33,8.23,8.23,0,0,1,.08,1.49c-.18-.31-.29-.65-.45-1,0,.09,0,.22,0,.31a7.1,7.1,0,0,1-1.12-1.72h.28c.74.84.74.84,1,.94a1,1,0,0,1,.12-.48c.84.16.92.39,1.18,1.08l-.37-1.25a30.06,30.06,0,0,0-4.65-8.58A29.41,29.41,0,0,0,50.33,8a31.71,31.71,0,0,0-5.55-4.07Z"/><path class="cls-6" d="M40.86,6.64l-.06,0,0,0h0l.08,0Z"/><path class="cls-6" d="M51.59,19.09c0,.05,0,.05-.06.05s0,0,0-.08l0,0Z"/><rect class="cls-8" x="22.94" y="70.24" width="7" height="2.76"/><rect class="cls-9" x="29.94" y="70.24" width="7" height="2.76"/><rect class="cls-1" x="16.98" y="72.25" width="12.97" height="5.31"/><rect class="cls-2" x="29.94" y="72.25" width="12.97" height="5.31"/></g></g></svg>