<svg xmlns="http://www.w3.org/2000/svg" viewBox="0 0 45.81 76.21"><defs><style>.cls-1{fill:#e69f56;}.cls-2{fill:#f2c97c;}.cls-3{fill:#fdda99;}.cls-4{fill:#ffeed1;}.cls-5{fill:#1d1d1b;opacity:0.1;}</style></defs><g id="Layer_2" data-name="Layer 2"><g id="Layer_1-2" data-name="Layer 1"><rect class="cls-1" y="71.48" width="45.81" height="4.73"/><path class="cls-2" d="M45.81,71.48H0L8.44,67.1a2,2,0,0,0,1.17.41H36.2a1.91,1.91,0,0,0,1.17-.41Z"/><path class="cls-3" d="M36.3,18.48v43H9.51V2.83a2.72,2.72,0,0,0,.58.64,4.6,4.6,0,0,0,.69.46V57.47a1.79,1.79,0,0,0,1.79,1.79h0a1.79,1.79,0,0,0,1.78-1.79V10.16a5.75,5.75,0,0,0,2.31,1.65,6.68,6.68,0,0,0,.71.25V57.47a1.8,1.8,0,0,0,1.8,1.79h0A1.79,1.79,0,0,0,21,57.47V14.59a3.42,3.42,0,0,0,.53.47,18.91,18.91,0,0,0,1.75.86,7,7,0,0,1,1.47,1.26V57.47a1.79,1.79,0,0,0,1.79,1.79h0a1.79,1.79,0,0,0,1.79-1.79V19.28l.11,0a10.58,10.58,0,0,0,2.92.22V57.47a1.79,1.79,0,0,0,1.79,1.79h0A1.79,1.79,0,0,0,35,57.47V19.12A3.25,3.25,0,0,0,36.3,18.48Z"/><path class="cls-4" d="M9.61,63.59h0Z"/><path class="cls-4" d="M36.3,63.59h0Z"/><path class="cls-1" d="M38.14,65.53v0a1.94,1.94,0,0,1-.77,1.54,1.91,1.91,0,0,1-1.17.41H9.61a2,2,0,0,1-1.17-.41,1.93,1.93,0,0,1-.76-1.54v0A1.93,1.93,0,0,1,9.51,63.6H36.3A1.93,1.93,0,0,1,38.14,65.53Z"/><path class="cls-2" d="M37.31,62.52v0a1,1,0,0,1-1,1H9.51a1,1,0,0,1-1-1v0a1.06,1.06,0,0,1,1-1.05H36.3A1,1,0,0,1,37.31,62.52Z"/><path class="cls-1" d="M12.39,5.09a5,5,0,0,0-1.61-1.16V57.47a1.79,1.79,0,0,0,1.79,1.79h0a1.79,1.79,0,0,0,1.79-1.79V10.16A5.89,5.89,0,0,1,13.1,7.58,6.09,6.09,0,0,0,12.39,5.09Z"/><path class="cls-1" d="M31.42,19.53V57.47a1.79,1.79,0,0,0,1.79,1.79h0A1.79,1.79,0,0,0,35,57.47V19.12a9.2,9.2,0,0,1-1.89.3C32.57,19.46,32,19.51,31.42,19.53Z"/><path class="cls-1" d="M19.56,13a6.45,6.45,0,0,0-2.14-.9V57.47a1.79,1.79,0,0,0,1.78,1.79h0A1.79,1.79,0,0,0,21,57.47V14.58A13.35,13.35,0,0,0,19.56,13Z"/><path class="cls-1" d="M24.79,17.17v40.3a1.79,1.79,0,0,0,1.78,1.79h0a1.79,1.79,0,0,0,1.79-1.79V19.28a7.45,7.45,0,0,1-3.13-1.65C25.1,17.48,24.94,17.32,24.79,17.17Z"/><path class="cls-2" d="M10.09,3.48a4.54,4.54,0,0,0,.69.45,5,5,0,0,1,1.61,1.16,6.09,6.09,0,0,1,.71,2.49,6,6,0,0,0,3.6,4.24c.24.09.47.17.72.24a6.45,6.45,0,0,1,2.14.9A13.35,13.35,0,0,1,21,14.58a3.43,3.43,0,0,0,.53.48c.53.37,1.19.54,1.75.86a7.33,7.33,0,0,1,1.48,1.25c.15.15.31.31.48.46a7.45,7.45,0,0,0,3.13,1.65l.1,0a10.58,10.58,0,0,0,2.92.22c.58,0,1.15-.07,1.72-.11a9.2,9.2,0,0,0,1.89-.3,3.25,3.25,0,0,0,1.27-.64v-.33c-.46-.39-.9-.8-1.32-1.22-.15-.14-.3-.29-.44-.44l-.75-.81-.4-.45a33.44,33.44,0,0,0-5-5.14L28,9.82a9,9,0,0,0-.84-.52,10.56,10.56,0,0,0-1.32-.59l-.07,0-.47-.15-.46-.13h-.05a11.1,11.1,0,0,0-2.74-.31,2.84,2.84,0,0,1-1-.24h0a6.75,6.75,0,0,1-.73-.34l-.37-.22a0,0,0,0,0,0,0A2.62,2.62,0,0,1,19.58,7a5.47,5.47,0,0,1-.88-.79A2.43,2.43,0,0,1,18.5,6a2.35,2.35,0,0,1-.19-.25c-.14-.43-.29-.88-.46-1.33-.06-.16-.12-.32-.19-.48s-.14-.37-.22-.56a.17.17,0,0,0,0-.05h0A4.85,4.85,0,0,0,13.32.05l-.13,0H13c-4.56-.35-3.48,2.8-3.48,2.8A3,3,0,0,0,10.09,3.48Z"/><path class="cls-5" d="M45.81,71.48v4.73H0V71.48L8.44,67.1a1.93,1.93,0,0,1-.76-1.54v0A1.93,1.93,0,0,1,9.51,63.6h0a1,1,0,0,1-1-1v0a1.06,1.06,0,0,1,1-1.05V50.78l1.27.28c1.2.25,2.4.47,3.61.64,1,.15,2,.26,3,.36,1.2.11,2.4.18,3.62.22s2.49,0,3.75,0,2.4-.11,3.61-.22q1.51-.1,3-.33c1.2-.15,2.4-.35,3.61-.58l1.27-.23V61.47a1,1,0,0,1,1,1.05v0a1,1,0,0,1-1,1h0a1.93,1.93,0,0,1,1.84,1.93v0a1.94,1.94,0,0,1-.77,1.54Z"/></g></g></svg>