<svg xmlns="http://www.w3.org/2000/svg" width="53" height="53" viewBox="0 0 53 53">
  <g id="news" transform="translate(-37 -154)">
    <circle id="Ellipse_62" data-name="Ellipse 62" cx="26.5" cy="26.5" r="26.5" transform="translate(37 154)" fill="#becdf2"/>
    <g id="communication" transform="translate(46 160.438)">
      <path id="Path_2814" data-name="Path 2814" d="M31.739,15A16.739,16.739,0,0,0,15,31.739H48.479A16.739,16.739,0,0,0,31.739,15Z" transform="translate(-13.958 -13.958)" fill="#99daff"/>
      <path id="Path_2815" data-name="Path 2815" d="M272.739,31.739A16.739,16.739,0,0,0,256,15V31.739Z" transform="translate(-238.219 -13.958)" fill="#53acf5"/>
      <path id="Path_2816" data-name="Path 2816" d="M30.354,5.208A17.781,17.781,0,0,0,0,17.781H35.562A17.665,17.665,0,0,0,30.354,5.208ZM8.386,16.739H2.118A15.583,15.583,0,0,1,3.9,10.453H9.182A31.889,31.889,0,0,0,8.386,16.739ZM5.227,8.37A15.77,15.77,0,0,1,12.47,3.01a14.544,14.544,0,0,0-1.539,2.469A20.882,20.882,0,0,0,9.76,8.37Zm11.512,8.37H10.47a29.362,29.362,0,0,1,.854-6.286h5.415Zm0-8.37H11.961a18.2,18.2,0,0,1,.834-1.959c1.109-2.217,2.5-3.671,3.945-4.152Zm2.084-6.111c1.44.48,2.836,1.934,3.945,4.152A18.207,18.207,0,0,1,23.6,8.37H18.823Zm0,14.48V10.453h5.415a29.362,29.362,0,0,1,.854,6.286ZM24.631,5.479A14.539,14.539,0,0,0,23.093,3.01a15.77,15.77,0,0,1,7.243,5.36H25.8a20.881,20.881,0,0,0-1.171-2.891Zm1.75,4.975H31.66a15.583,15.583,0,0,1,1.785,6.286H27.177A31.889,31.889,0,0,0,26.381,10.453Z" transform="translate(0 0)" fill="#4793ff"/>
      <path id="Path_2817" data-name="Path 2817" d="M256,0V17.781h17.781A17.781,17.781,0,0,0,256,0Zm1.042,2.259c1.44.48,2.836,1.934,3.945,4.152a18.208,18.208,0,0,1,.834,1.959h-4.778Zm0,14.48V10.453h5.415a29.361,29.361,0,0,1,.854,6.286ZM262.85,5.479a14.542,14.542,0,0,0-1.539-2.469,15.77,15.77,0,0,1,7.243,5.36h-4.533A20.883,20.883,0,0,0,262.85,5.479Zm8.813,11.261H265.4a31.887,31.887,0,0,0-.8-6.286h5.279A15.583,15.583,0,0,1,271.663,16.739Z" transform="translate(-238.219 0)" fill="#424fdd"/>
      <path id="Path_2818" data-name="Path 2818" d="M34.521,259.823H1.042A1.042,1.042,0,0,1,0,258.781V242.042A1.042,1.042,0,0,1,1.042,241H34.521a1.042,1.042,0,0,1,1.042,1.042v16.739A1.042,1.042,0,0,1,34.521,259.823Z" transform="translate(0 -224.261)" fill="#ebfaff"/>
      <path id="Path_2819" data-name="Path 2819" d="M272.739,241H256v18.823h16.739a1.042,1.042,0,0,0,1.042-1.042V242.042A1.042,1.042,0,0,0,272.739,241Z" transform="translate(-238.219 -224.261)" fill="#c3e6ff"/>
      <path id="Path_2820" data-name="Path 2820" d="M30,271H61.395v14.656H30Z" transform="translate(-27.916 -252.177)" fill="#ffea98"/>
      <path id="Path_2821" data-name="Path 2821" d="M256,271h15.7v14.656H256Z" transform="translate(-238.219 -252.177)" fill="#ffb454"/>
      <g id="Group_304" data-name="Group 304" transform="translate(4.096 22.122)">
        <path id="Path_2822" data-name="Path 2822" d="M65.024,319.36a.868.868,0,0,0-.868-.86h-.009a.868.868,0,0,0-.86.877l.034,3.526-2.774-4.016a.868.868,0,0,0-1.583.493v6.24a.868.868,0,1,0,1.736,0v-3.454l2.636,3.818a.949.949,0,0,0,1.073.393.978.978,0,0,0,.671-.967V325.4Z" transform="translate(-58.966 -318.5)" fill="#5e54ac"/>
        <path id="Path_2823" data-name="Path 2823" d="M168.041,320.236a.868.868,0,1,0,0-1.736h-2.634a.868.868,0,0,0-.868.868v6.251a.868.868,0,0,0,.868.868h2.634a.868.868,0,1,0,0-1.736h-1.766v-1.389h1.572a.868.868,0,1,0,0-1.736h-1.572v-1.389Z" transform="translate(-157.206 -318.5)" fill="#5e54ac"/>
        <path id="Path_2824" data-name="Path 2824" d="M249.554,318.525a.868.868,0,0,0-1.021.682l-.657,3.3-1.048-3.4a.868.868,0,0,0-1.677.067l-1.032,3.335-.656-3.314a.868.868,0,0,0-1.7.337l1.218,6.157a.881.881,0,0,0,.034.122,1.01,1.01,0,0,0,.951.671h.007a1.01,1.01,0,0,0,.949-.684l.007-.023L246,322.313l1.067,3.465c0,.012.007.023.012.035a1.01,1.01,0,0,0,.951.672h.007a1.01,1.01,0,0,0,.949-.684.872.872,0,0,0,.03-.11l1.223-6.144a.868.868,0,0,0-.682-1.021Z" transform="translate(-229.049 -318.496)" fill="#5e54ac"/>
      </g>
      <path id="Path_2825" data-name="Path 2825" d="M262.819,318.525a.868.868,0,0,0-1.021.682l-.657,3.3-1.048-3.4a.868.868,0,0,0-1.677.067l-1.032,3.335-.656-3.314a.868.868,0,0,0-.73-.69v5.949l.244,1.236a.883.883,0,0,0,.034.122,1.01,1.01,0,0,0,.951.671h.007a1.01,1.01,0,0,0,.949-.684l.007-.023,1.072-3.464,1.067,3.465c0,.012.007.023.012.035a1.01,1.01,0,0,0,.951.672h.007a1.01,1.01,0,0,0,.949-.684.869.869,0,0,0,.03-.11l1.223-6.144a.868.868,0,0,0-.682-1.021Z" transform="translate(-238.218 -296.374)" fill="#453d81"/>
      <path id="Path_2826" data-name="Path 2826" d="M375.167,321.731c-.753-.278-1.455-.58-1.686-.681a.35.35,0,0,1-.113-.32.544.544,0,0,1,.436-.43,2,2,0,0,1,1.641.382l-.006,0h0a.868.868,0,1,0,1.093-1.348,3.719,3.719,0,0,0-3.23-.692,2.285,2.285,0,0,0-1.654,1.846,2.073,2.073,0,0,0,.925,2.052.864.864,0,0,0,.12.066c.036.016.9.4,1.872.759.2.073.838.343.764.754a.969.969,0,0,1-1.007.639,2.089,2.089,0,0,1-1.535-.641.868.868,0,1,0-1.287,1.166,3.8,3.8,0,0,0,2.822,1.212,2.664,2.664,0,0,0,2.716-2.07,2.435,2.435,0,0,0-1.873-2.689Z" transform="translate(-345.489 -296.38)" fill="#453d81"/>
    </g>
  </g>
</svg>
