<svg xmlns="http://www.w3.org/2000/svg" viewBox="0 0 226.23 243.15"><defs><style>.cls-1{fill:#ebc3a5;}.cls-2{fill:#004664;}.cls-3{fill:#f0cdaf;}.cls-4{fill:#f5d2b4;}.cls-5{fill:#926d5a;}.cls-6{fill:#ebc5a5;}.cls-7{fill:#dcb99b;}.cls-8{fill:#e6e6e6;}.cls-9{fill:#f0f0f0;}.cls-10{fill:#003c5a;}.cls-11{fill:#ff6400;}.cls-12{fill:#323232;}.cls-13{fill:#5a5a5a;}.cls-14{fill:#8c8c8c;}.cls-15{fill:#646464;}.cls-16{fill:#ff7800;}.cls-17{fill:#ff3c00;}.cls-18{fill:#505050;}.cls-19{fill:#f53200;}</style></defs><g id="Layer_2" data-name="Layer 2"><g id="Layer_1-2" data-name="Layer 1"><path class="cls-1" d="M77.74,78.7c-1.91,2.66-4.88,1-10.84-10.66s-.39-20.7,4.75-16.59l0,0s0,0,0,0A76,76,0,0,0,77.74,78.7Z"/><path class="cls-2" d="M51,224.44V158.2L36.43,134.51C16.21,154.74,17,183.43,18,224.44Z"/><path class="cls-2" d="M195.52,224.44c.94-41,1.77-69.7-18.46-89.93L162.5,158.2v66.24Z"/><path class="cls-3" d="M106.7,4.46c16,0,35.08,5.84,35.08,45.22,0,.61,0,1.2-.05,1.8,0,0,0,0,0,0a76.19,76.19,0,0,1-6.06,27.2c-4.3,10.31-9.75,17.62-12.33,19.86C120.56,101,116.86,106,106.7,106s-13.85-5-16.64-7.44C87.48,96.32,82,89,77.74,78.7a76,76,0,0,1-6.07-27.2s0,0,0,0c0-.6,0-1.19,0-1.8C71.62,10.3,90.7,4.46,106.7,4.46Z"/><path class="cls-4" d="M123.34,98.56c2.58-2.24,8-9.55,12.33-19.86a76.19,76.19,0,0,0,6.06-27.2s0,0,0,0c.05-.6.05-1.19.05-1.8,0-39.38-19.08-45.22-35.08-45.22V106C116.86,106,120.56,101,123.34,98.56Z"/><path class="cls-3" d="M135.67,78.7c1.9,2.66,4.88,1,10.83-10.66s.4-20.7-4.75-16.59l0,0s0,0,0,0A76.19,76.19,0,0,1,135.67,78.7Z"/><path class="cls-5" d="M106.7,0c8.11,0,23.23,0,30.31,14.46,14.31,6.16,9.07,36,9.07,36a53.38,53.38,0,0,0-5,9h-3.16c0-23.18-5-38.12-16.54-41.19-3.42-.91-9.1,1.59-14.64,1.59s-11.22-2.5-14.64-1.59c-11.54,3.07-16.53,18-16.53,41.19H72.36a53.38,53.38,0,0,0-5-9s-5.23-29.82,9.07-36C83.47,0,98.59,0,106.7,0Z"/><path class="cls-6" d="M128,92.93h0a32.48,32.48,0,0,1-4.64,5.63C120.56,101,116.86,106,106.7,106s-13.85-5-16.64-7.44a32.48,32.48,0,0,1-4.64-5.63h0S86,101.48,83.73,106s23,28.51,23,28.51,25.23-24,23-28.51S128,92.93,128,92.93Z"/><path class="cls-7" d="M128,92.93h0a32.48,32.48,0,0,1-4.64,5.63C120.56,101,116.86,106,106.7,106s-13.85-5-16.64-7.44a32.48,32.48,0,0,1-4.64-5.63h0s.12,1.82,0,4.23a32.43,32.43,0,0,0,4.63,5.6c2.79,2.42,6.47,7.44,16.64,7.44s13.86-5,16.64-7.44a32.43,32.43,0,0,0,4.63-5.6C127.89,94.75,128,92.93,128,92.93Z"/><polygon class="cls-8" points="71.62 117.69 106.7 121.18 141.57 117.69 106.7 198.71 71.62 117.69"/><path class="cls-9" d="M85,101.89s5.32,12.52,21.73,19.29L92.76,142.51,71.62,117.69Z"/><path class="cls-9" d="M128.44,101.89s-5.53,12.52-21.94,19.29l13.94,21.33,21.13-24.82Z"/><path class="cls-10" d="M163.08,224.44c2.69-64.61,14-89.93,14-89.93l-35.49-16.82-34.87,81-35.08-81L36.14,134.51s11.29,25.32,14,89.93Z"/><polygon class="cls-2" points="141.57 117.69 156.32 124.68 156.32 144.36 138.09 150.3 147.21 155.84 106.5 213.88 106.7 198.71 141.57 117.69"/><path class="cls-11" d="M114.79,137.14a4.89,4.89,0,0,1-1,4.08A4.94,4.94,0,0,1,110,143H103a4.94,4.94,0,0,1-4.83-5.9c.07-.32.14-.65.2-1,.31-1.53.61-3.07,1-4.89a2.46,2.46,0,0,1,2.41-2h9.43a2.45,2.45,0,0,1,2.41,2c.36,1.82.67,3.35,1,4.89C114.66,136.48,114.73,136.81,114.79,137.14Z"/><polygon class="cls-2" points="71.42 117.69 56.67 124.68 56.67 144.36 74.91 150.3 65.79 155.84 106.5 213.88 106.3 198.71 71.42 117.69"/><path class="cls-11" d="M114.39,150.09A7.38,7.38,0,0,0,107,143h-1a7.37,7.37,0,0,0-7.37,7.06l-1.19,28,8.87,20.61,0,2.57h.33l0-2.57,8.86-20.61Z"/><path class="cls-12" d="M148,195.07,159.67,225l3.27,8.42.88,2.26a4.68,4.68,0,0,1-2.58,5.87l-2.51,1.16a4.68,4.68,0,0,1-6.14-1.86l-1.14-2.13-4.28-8L132,202.43Z"/><path class="cls-13" d="M149.46,191a3.49,3.49,0,0,1,0,3.13,5.42,5.42,0,0,1-2.64,2.53L134,202.5a5.4,5.4,0,0,1-3.64.37,3.49,3.49,0,0,1-2.4-2l-19.35-48c-.78-1.93.46-4.3,2.8-5.38l8.19-3.78c2.34-1.07,5-.47,5.91,1.38Z"/><polygon class="cls-14" points="159.66 224.97 162.94 233.39 151.44 238.68 147.17 230.72 159.66 224.97"/><path class="cls-15" d="M146.78,196.64a5.42,5.42,0,0,0,2.64-2.53,3.49,3.49,0,0,0,0-3.13l-23.92-45.93c-1-1.85-3.57-2.45-5.91-1.38l-4.09,1.89,24.86,54Z"/><path class="cls-11" d="M187.69,133.44a21.86,21.86,0,1,1-30.92,0A21.86,21.86,0,0,1,187.69,133.44Z"/><path class="cls-16" d="M187.69,133.44a21.86,21.86,0,0,0-30.92,0l30.92,30.92A21.86,21.86,0,0,0,187.69,133.44Z"/><path class="cls-12" d="M224.78,191.82a6.12,6.12,0,0,1-.34,8.28l-1,1a6.12,6.12,0,0,1-8.28.34L191.34,181.3,204.64,168Z"/><rect class="cls-8" x="167.97" y="157.37" width="51.38" height="25.91" transform="translate(-63.72 186.84) rotate(-45)"/><path class="cls-17" d="M179.73,177.5l3-3,1.42,1.42-.52.52,5.32,5.31-2.44,2.44-6.44-1.37,2.49,2.48.51-.52,1.43,1.42-3,3-1.42-1.42.52-.52-3.9-3.89-.52.52-1.42-1.42,3.21-3.21,5.76,1.2-2.06-2.06-.52.52Z"/><path class="cls-17" d="M188.45,171.62l-1,1,1.37,1.37.76-.76,1,1-.76.77,1.54,1.53,1-1L191,174.15l1.94-1.94L195.7,175l-5.93,5.93-1.42-1.42.52-.52-3.89-3.9-.52.52L183,174.19l5.93-5.93,2.61,2.62-1.94,1.93Z"/><path class="cls-17" d="M197.58,173.12,191.06,169l-.34.34-1.42-1.42,3.44-3.43,1.42,1.42-.57.56,3.67,2.82.09-.08-3.67-5.67,2.49-2.49,5.6,3.73.09-.08L199,161l-.57.57-1.42-1.42,3-3,1.42,1.42-.35.35,4.2,6.43-3,3L198,165.61l-.08.09,2.73,4.4Z"/><path class="cls-17" d="M208,159.65a1,1,0,0,0,.33-.49.45.45,0,0,0-.15-.39.4.4,0,0,0-.3-.11,2.21,2.21,0,0,0-.62.19c-.59.27-1.12.49-1.58.66a5,5,0,0,1-1.29.31,2.38,2.38,0,0,1-1.1-.16,2.91,2.91,0,0,1-1-.71,3.19,3.19,0,0,1-.72-1,2.17,2.17,0,0,1-.17-1.16,3.53,3.53,0,0,1,.49-1.32,8.3,8.3,0,0,1,1.26-1.54,9.11,9.11,0,0,1,1.57-1.27,6.11,6.11,0,0,1,1.51-.71l1.55,1.55-1.82,1.82a.53.53,0,0,0-.47-.2.88.88,0,0,0-.44.24,1.22,1.22,0,0,0-.33.49.37.37,0,0,0,.13.38.31.31,0,0,0,.35.08,4,4,0,0,0,.56-.24q.66-.35,1.29-.6a4.51,4.51,0,0,1,1.24-.34,2.89,2.89,0,0,1,1.17.12,3.27,3.27,0,0,1,2.08,3.14,4.85,4.85,0,0,1-1.58,2.68,12,12,0,0,1-1.67,1.4,8.58,8.58,0,0,1-1.5.84L205,161.58l1.9-1.91a.88.88,0,0,0,.5.29C207.55,160,207.73,159.87,208,159.65Z"/><rect class="cls-12" x="203.73" y="185.45" width="10.12" height="57.6"/><path class="cls-18" d="M74.15,184a22.47,22.47,0,1,1,0-31.78A22.48,22.48,0,0,1,74.15,184Z"/><path class="cls-13" d="M74.15,184a22.48,22.48,0,0,0,0-31.78L42.37,184A22.48,22.48,0,0,0,74.15,184Z"/><path class="cls-12" d="M12.71,224.75a7,7,0,0,1-9.5-.39l-1.15-1.15a7,7,0,0,1-.4-9.51l23.13-27.33,15.26,15.26Z"/><rect class="cls-19" x="22.31" y="161.79" width="31.14" height="53.48" transform="translate(-122.22 82.01) rotate(-45)"/><rect class="cls-17" x="31.76" y="184.61" width="31.14" height="26.74" transform="translate(-126.15 91.49) rotate(-45.01)"/><rect class="cls-12" x="17.49" y="205.5" width="10.12" height="37.56"/></g></g></svg>