<svg xmlns="http://www.w3.org/2000/svg" viewBox="0 0 120.5 138.27"><defs><style>.cls-1,.cls-2{fill:#52c6b4;}.cls-2{opacity:0.25;isolation:isolate;}.cls-3{fill:#38353b;}.cls-4{fill:#f4f4ec;}.cls-5{fill:#ff6106;}.cls-6{fill:#00aeb3;}</style></defs><g id="Layer_2" data-name="Layer 2"><g id="Layer_10" data-name="Layer 10"><g id="layer1"><path id="path3997" class="cls-1" d="M27,80.32,8.7,107.69c-7.8,12-6.76,28,14.51,26.27,4.38-.36,70.61,0,70.61,0,27.77,2.38,24.52-15.58,17.52-24.63L92.45,80.59Z"/><path id="path2388" class="cls-2" d="M36.41,2.31c7.53,7.4,6.39,13,6.47,21.94l.26,28.26L6.46,107.45c-8.87,14.8-2.87,29.28,11.69,28.42l84.19.09c15.73-.07,21.48-14.65,9.28-30L76.83,52.65l-.65-28.31c-.09-8.95-1.32-14.52,6.07-22Z"/><path id="path3181" class="cls-3" d="M36.49,2.31C44,9.71,42.9,15.3,43,24.25l.26,28.26L6.48,107.45c-8.9,14.8-2.88,29.28,11.71,28.42l84.38.09c15.78-.07,21.53-14.65,9.31-30L77,52.65l-.66-28.31c-.08-8.95-1.32-14.52,6.09-22Z"/><path id="path3220" class="cls-4" d="M21,129.86c-8.1.75-14.52-4.87-9.31-14.78L48.94,54.86l-.28-40A12.14,12.14,0,0,0,46.2,6.69c4.69,2.21,8.93,4.57,9.31,8.21l.55,42.15c.12,9.47-14.58,29-21.05,40.48C26.2,113.1,14.55,124.65,21,129.86Z"/><path id="path3252" class="cls-5" d="M102.34,129.36c8.1.75,11.23-5.14,6-15.06L71.14,54.09l.27-40a12.17,12.17,0,0,1,2.46-8.21c-4.68,2.21-5.92,4.56-6.29,8.21L67.31,56C67.24,65.47,83,84.22,89.45,95.66,98.25,111.23,108.81,124.14,102.34,129.36Z"/><path id="rect3162" class="cls-6" d="M82.25,0,36.4,0a2.28,2.28,0,0,0-2.12,1.4A2.33,2.33,0,0,0,34.78,4c3.52,3.45,4.82,6.16,5.4,9.19s.36,6.55.4,11.12l.25,27.59L4.56,106.18l-.07.11c-4.73,7.88-5.66,15.94-3.1,22.15s8.77,10.17,16.75,9.76h.15l84.06.07c8.58,0,15.08-4.3,17.29-10.84s.23-14.69-6.09-22.73l-.11-.18L79.12,51.94l-.65-27.63v-.43c-.06-4.35-.3-7.76.22-10.7s1.77-5.74,5.22-9.25a2.34,2.34,0,0,0,.47-2.53A2.28,2.28,0,0,0,82.25,0ZM77.64,4.61a20.5,20.5,0,0,0-3.49,7.78,46.45,46.45,0,0,0-.33,9.26H63.31a2.27,2.27,0,0,0-2.16,2.41,2.3,2.3,0,0,0,2.41,2.2H73.9l.43,17.57h-11a2.31,2.31,0,0,0,.25,4.61H74.44l.1,4.29a2.4,2.4,0,0,0,.36,1.19l8.21,12.57H71.81a2.27,2.27,0,0,0-2.16,2.41,2.31,2.31,0,0,0,2.41,2.2H84.63a2.29,2.29,0,0,0,1.26-.36l9,13.86H84.09a2.31,2.31,0,1,0,.21,4.61H96.87a2.15,2.15,0,0,0,.94-.21l8.75,13.4h-10a.81.81,0,0,0-.22,0,2.31,2.31,0,1,0,.22,4.61h12.57a2.2,2.2,0,0,0,.36,0l.18.25.1.18c5.77,7.27,7,13.95,5.48,18.55s-5.81,7.68-13,7.71l-84.17-.07H18c-6.5.38-10.49-2.4-12.36-6.92s-1.34-11.09,2.81-18l36.6-54.85a2.39,2.39,0,0,0,.39-1.3l-.25-28.27c0-4.37.24-8.11-.5-12a20.65,20.65,0,0,0-3.57-7.63Z"/></g></g></g></svg>