<svg xmlns="http://www.w3.org/2000/svg" width="385" height="385" viewBox="0 0 385 385">
  <g id="avu" transform="translate(-4790 -2146)">
    <circle id="Ellipse_79" data-name="Ellipse 79" cx="192.5" cy="192.5" r="192.5" transform="translate(4790 2146)" fill="#f0f0f1"/>
    <g id="Filled_outline" data-name="Filled outline" transform="translate(4859.961 2195)">
      <path id="Path_3846" data-name="Path 3846" d="M332.555,353.523V290.875A27.246,27.246,0,0,0,309.162,263.9l-40.18-5.74V240H223.573v18.164l-42.036,9.007A27.246,27.246,0,0,0,160,293.81v59.713" transform="translate(-91.886 -112.854)" fill="#fec9a3"/>
      <path id="Path_3847" data-name="Path 3847" d="M317.409,233.77V208H272v25.77A45.839,45.839,0,0,0,317.409,233.77Z" transform="translate(-140.313 -99.018)" fill="#feb784"/>
      <path id="Path_3848" data-name="Path 3848" d="M332.555,305.7v62.648H160V308.636A27.245,27.245,0,0,1,181.533,282l32.958-7.062a29.842,29.842,0,0,0,29.837,29.84h3.9a29.842,29.842,0,0,0,29.84-29.837v-.65l31.1,4.439a27.1,27.1,0,0,1,11.863,4.717h.006a27.5,27.5,0,0,1,4.666,4.183A27.193,27.193,0,0,1,332.555,305.7Z" transform="translate(-91.886 -127.681)" fill="#e0e0de"/>
      <path id="Path_3849" data-name="Path 3849" d="M374.734,315.863v62.648H257.55c39.347-22.251,78.479-49.15,110.327-80.721A27.193,27.193,0,0,1,374.734,315.863Z" transform="translate(-134.065 -137.842)" fill="#d6d6d4"/>
      <path id="Path_3850" data-name="Path 3850" d="M221.85,128h-.227a13.623,13.623,0,1,0,0,27.246h4.541V128Z" transform="translate(-112.641 -64.427)" fill="#feb784"/>
      <path id="Path_3851" data-name="Path 3851" d="M321.737,80.878V117.2a40.871,40.871,0,0,1-40.865,40.868c-.514,0-1.025-.011-1.53-.028A40.872,40.872,0,0,1,240,117.2V80.878a40.868,40.868,0,0,1,81.737,0Z" transform="translate(-126.477 -26.382)" fill="#fec9a3"/>
      <path id="Path_3852" data-name="Path 3852" d="M342.5,80.875V117.2a40.871,40.871,0,0,1-40.865,40.868c-.514,0-1.025-.011-1.53-.028a40.788,40.788,0,0,0,15.15-31.758V80.869a40.9,40.9,0,0,0-27.24-38.535A40.879,40.879,0,0,1,342.5,80.875Z" transform="translate(-147.236 -26.378)" fill="#fec093"/>
      <path id="Path_3853" data-name="Path 3853" d="M240,120h81.737v9.082H240Z" transform="translate(-126.477 -60.968)" fill="#fec093"/>
      <path id="Path_3854" data-name="Path 3854" d="M261.456,69.864a98.97,98.97,0,0,0,38.825,0l3.292-.658,18.164,29.826V80.868a40.868,40.868,0,0,0-81.737,0V99.032l18.164-29.826Z" transform="translate(-126.477 -26.377)" fill="#95573a"/>
      <circle id="Ellipse_99" data-name="Ellipse 99" cx="6.5" cy="6.5" r="6.5" transform="translate(168.039 68)" fill="#7a432a"/>
      <path id="Path_3855" data-name="Path 3855" d="M178.164,443.032h13.623l86.278-18.164h18.164l13.623-9.082h22.7V384h-22.7l-31.786,13.623L160,406.7v18.164A18.164,18.164,0,0,0,178.164,443.032Z" transform="translate(-91.886 -175.118)" fill="#feb784"/>
      <path id="Path_3856" data-name="Path 3856" d="M314.391,443.032H300.769l-86.278-18.164H196.327L182.7,415.786H160V384h22.7l31.786,13.623L332.555,406.7v18.164A18.164,18.164,0,0,1,314.391,443.032Z" transform="translate(-91.886 -175.118)" fill="#fec9a3"/>
      <path id="Path_3857" data-name="Path 3857" d="M120.655,124.327V278.719a36.327,36.327,0,0,1-72.655,0V124.327a36.327,36.327,0,0,1,72.655,0Z" transform="translate(-43.459 -47.132)" fill="#404f66"/>
      <path id="Path_3858" data-name="Path 3858" d="M120.655,138.942V293.333a36.327,36.327,0,0,1-72.655,0V284c26.678-34.9,52.266-86.368,68.364-162.2a36.117,36.117,0,0,1,4.291,17.142Z" transform="translate(-43.459 -61.746)" fill="#3b495e"/>
      <g id="Group_383" data-name="Group 383" transform="translate(4.627 81.331)">
        <rect id="Rectangle_230" data-name="Rectangle 230" width="17" height="28" rx="8" transform="translate(0.412 -0.331)" fill="#ffb531"/>
        <rect id="Rectangle_231" data-name="Rectangle 231" width="18" height="28" rx="8" transform="translate(54.412 -0.331)" fill="#ffb531"/>
        <rect id="Rectangle_232" data-name="Rectangle 232" width="18" height="27" rx="8" transform="translate(72.412 145.669) rotate(180)" fill="#ffb531"/>
        <rect id="Rectangle_233" data-name="Rectangle 233" width="17" height="27" rx="8" transform="translate(17.412 145.669) rotate(180)" fill="#ffb531"/>
      </g>
      <path id="Path_3859" data-name="Path 3859" d="M116.327,186.164a9.082,9.082,0,0,0-9.082,9.082v9.082H89.082v-9.082A9.082,9.082,0,0,0,80,186.164V168h36.327Z" transform="translate(-57.295 -81.723)" fill="#c7c7c5"/>
      <path id="Path_3860" data-name="Path 3860" d="M80,362.164a9.082,9.082,0,0,0,9.082-9.082V344h18.164v9.082a9.082,9.082,0,0,0,9.082,9.082v18.164H80Z" transform="translate(-57.295 -157.822)" fill="#c7c7c5"/>
      <path id="Path_3861" data-name="Path 3861" d="M104,184h9.082v9.082H104Z" transform="translate(-67.673 -88.641)" fill="#b0b0ae"/>
      <path id="Path_3862" data-name="Path 3862" d="M104,376h9.082v9.082H104Z" transform="translate(-67.673 -171.659)" fill="#b0b0ae"/>
      <path id="Path_3863" data-name="Path 3863" d="M376.154,155.94l-28.48.188a36.327,36.327,0,0,1-25.757-10.47L296,119.959h54.491l28.823,28.21a4.541,4.541,0,0,1-3.16,7.771Z" transform="translate(-150.69 -60.95)" fill="#4d5e78"/>
      <path id="Path_3864" data-name="Path 3864" d="M322.818,51.2V78.45H232V51.2a27.228,27.228,0,0,1,27.246-27.246h36.327A27.248,27.248,0,0,1,322.818,51.2Z" transform="translate(-123.018 -19.441)" fill="#404f66"/>
      <path id="Path_3865" data-name="Path 3865" d="M349.574,55.109V82.354H293.88a188.77,188.77,0,0,0,44.353-49.365,27.2,27.2,0,0,1,11.341,22.12Z" transform="translate(-149.774 -23.346)" fill="#3b495e"/>
      <path id="Path_3866" data-name="Path 3866" d="M263.786,106.123H232V87.959h31.786a9.082,9.082,0,0,1,0,18.164Z" transform="translate(-123.018 -47.114)" fill="#4d5e78"/>
      <path id="Path_3867" data-name="Path 3867" d="M254.7,70.867H232V61.785a27.1,27.1,0,0,1,3.491-13.356A22.723,22.723,0,0,1,254.7,70.867Z" transform="translate(-123.018 -30.022)" fill="#313b4c"/>
      <path id="Path_3868" data-name="Path 3868" d="M257.92,162.535l-31.091-4.4-5.193-.752V143.132A45.061,45.061,0,0,0,238.86,115.9h26.306a9.082,9.082,0,0,0,6.421-15.5L244.341,73.151V47.786A31.786,31.786,0,0,0,212.555,16H176.228a31.786,31.786,0,0,0-31.786,31.786V75.032a4.62,4.62,0,0,0,.039.564,18.164,18.164,0,0,0,4.5,35.764h.227a45.276,45.276,0,0,0,17.959,31.786h-.023v14.492l-7.478,1.6L128.7,165.876a31.787,31.787,0,0,0-6.963,2.38V93.2A40.868,40.868,0,0,0,40,93.2V247.587a40.835,40.835,0,0,0,67.523,30.941,22.747,22.747,0,0,0,18.755,9.928H139.9a4.552,4.552,0,0,0,.937-.1l53.578-11.3,53.531,11.3a4.524,4.524,0,0,0,.937.1h13.623a22.73,22.73,0,0,0,22.7-22.7V194a32.006,32.006,0,0,0-27.29-31.469Zm-7.244,70.424,8.223-3.536h17.229v13.259l-26.9-2.077L235.3,239.538Zm-74.448-71.649V148.434a45.383,45.383,0,0,0,36.327,0v12.876a4.541,4.541,0,0,0,3.889,4.494l4.975.721a25.325,25.325,0,0,1-25.076,22.03h-3.905a25.328,25.328,0,0,1-25.032-21.683l5.231-1.121a4.541,4.541,0,0,0,3.59-4.442Zm60.457-54.491a31.578,31.578,0,0,1-22.478-9.309L196.27,79.573h41.648l27.242,27.246ZM153.523,70.491V61.409h22.7a4.541,4.541,0,1,1,0,9.082Zm1.466-30.681a17.983,17.983,0,0,1,11.59,12.517H153.523V47.786a22.621,22.621,0,0,1,1.466-7.976ZM162.6,29.623a22.844,22.844,0,0,1,13.623-4.541h36.327a22.7,22.7,0,0,1,22.7,22.7v22.7h-46.19a13.618,13.618,0,0,0-12.842-18.164h-.38a26.977,26.977,0,0,0-15.911-20.341,22.476,22.476,0,0,1,2.668-2.364ZM139.9,93.2a9.093,9.093,0,0,1,9.082-9.082v18.164A9.093,9.093,0,0,1,139.9,93.2Zm18.164,13.623V79.573h25.364l24.359,24.357a40.563,40.563,0,0,0,21.9,11.365,36.315,36.315,0,0,1-71.626-8.477ZM130.6,174.757l27.91-5.98a34.426,34.426,0,0,0,33.927,28.86h3.905a34.419,34.419,0,0,0,34.064-29.825l26.22,3.714A22.871,22.871,0,0,1,276.128,194v26.337H257.964a4.551,4.551,0,0,0-1.794.369l-2.747,1.182V206.719h-9.082V225.79l-19.261,8.243L194.366,236.4,163.7,234.036l-19.261-8.245V206.719h-9.082v15.173l-2.747-1.181a4.551,4.551,0,0,0-1.794-.369h-9.082V178.8a22.735,22.735,0,0,1,8.865-4.047ZM67.246,224.1a13.647,13.647,0,0,0,9.082-12.845v-4.541h9.082v4.541A13.647,13.647,0,0,0,94.491,224.1v9.86H67.246ZM94.491,211.26v-9.082a4.541,4.541,0,0,0-4.541-4.541H71.786a4.541,4.541,0,0,0-4.541,4.541v9.082a4.532,4.532,0,0,1-1.832,3.633,9.064,9.064,0,0,0-7.25-3.633H49.082V129.523h9.082a9.064,9.064,0,0,0,7.25-3.633,4.532,4.532,0,0,1,1.832,3.633V138.6a4.541,4.541,0,0,0,4.541,4.541H89.95a4.541,4.541,0,0,0,4.541-4.541v-9.082a4.532,4.532,0,0,1,1.832-3.636,9.064,9.064,0,0,0,7.25,3.636h9.082V211.26h-9.082a9.064,9.064,0,0,0-7.25,3.633A4.532,4.532,0,0,1,94.491,211.26Zm-45.409,9.082h9.082v18.164H49.082Zm9.082-99.9H49.082V102.277h9.082Zm36.327-3.763a13.647,13.647,0,0,0-9.082,12.845v4.541H76.327v-4.541a13.647,13.647,0,0,0-9.082-12.845v-9.86H94.491Zm18.164,3.763h-9.082V102.277h9.082Zm-9.082,99.9h9.082v18.164h-9.082ZM80.868,61.409A31.822,31.822,0,0,1,112.655,93.2h-9.082a9.082,9.082,0,0,0-7.853,4.541h-29.7A9.082,9.082,0,0,0,58.164,93.2H49.082A31.822,31.822,0,0,1,80.868,61.409Zm0,217.964a31.822,31.822,0,0,1-31.786-31.786h9.082a9.082,9.082,0,0,0,7.853-4.541h29.7a9.082,9.082,0,0,0,7.853,4.541h9.082a31.822,31.822,0,0,1-31.786,31.786Zm58.559,0H126.278a13.611,13.611,0,0,1-12.317-7.843,40.8,40.8,0,0,0,5.433-10.321h10.053l7.926,5.271,4.541,3.042a4.541,4.541,0,0,0,2.528.769h17.692l10.2,2.143Zm136.7-13.623a13.639,13.639,0,0,1-13.623,13.623H249.356l-85.818-18.067a4.567,4.567,0,0,0-.934-.1H145.822l-12.488-8.322a4.541,4.541,0,0,0-2.516-.76h-9.34c.166-1.492.258-22.7.258-22.7h8.147l8.23,3.539,22.7,9.718a4.534,4.534,0,0,0,1.437.354l86.278,6.629,27.6,2.129Z" transform="translate(-40 -16)"/>
      <path id="Path_3869" data-name="Path 3869" d="M270.811,149.623A6.811,6.811,0,1,0,264,142.811,6.811,6.811,0,0,0,270.811,149.623Z" transform="translate(-136.854 -67.886)"/>
      <path id="Path_3870" data-name="Path 3870" d="M288,191.26h9.612a65.294,65.294,0,0,0,18.95-2.781l-2.633-8.692a56.23,56.23,0,0,1-16.317,2.391H288Z" transform="translate(-147.231 -86.819)"/>
      <path id="Path_3871" data-name="Path 3871" d="M104,184h9.082v9.082H104Z" transform="translate(-67.673 -88.641)"/>
      <path id="Path_3872" data-name="Path 3872" d="M104,376h9.082v9.082H104Z" transform="translate(-67.673 -171.659)"/>
    </g>
  </g>
</svg>
