<svg xmlns="http://www.w3.org/2000/svg" width="385" height="385" viewBox="0 0 385 385">
  <g id="avv" transform="translate(-5192 -2146)">
    <circle id="Ellipse_79" data-name="Ellipse 79" cx="192.5" cy="192.5" r="192.5" transform="translate(5192 2146)" fill="#f0f0f1"/>
    <g id="Filled_outline" data-name="Filled outline" transform="translate(5257.847 2185)">
      <path id="Path_3873" data-name="Path 3873" d="M224,141.623a13.623,13.623,0,0,0,13.623,13.623h4.541V128h-4.541A13.623,13.623,0,0,0,224,141.623Z" transform="translate(-124.1 -64.427)" fill="#feb784"/>
      <path id="Path_3874" data-name="Path 3874" d="M360,242.6A61.184,61.184,0,0,0,387.246,191.7V120H360Z" transform="translate(-182.904 -60.968)" fill="#ffa912"/>
      <path id="Path_3875" data-name="Path 3875" d="M303.8,316.128V221.839a22.7,22.7,0,0,0-18.972-22.4L253.1,194.155a4.541,4.541,0,0,1-3.795-4.479V157.2H212.982v30.915a4.541,4.541,0,0,1-5.33,4.472L135.786,179.9,131.246,80H104V193.792a18.164,18.164,0,0,0,12.746,17.337l59.909,18.722,3.852,22.016a35.2,35.2,0,0,0,5.229,37.016v27.246" transform="translate(-72.214 -43.673)" fill="#fec9a3"/>
      <path id="Path_3876" data-name="Path 3876" d="M184,260.235v39.032l9.082,2.838V261.838Z" transform="translate(-106.804 -121.604)" fill="#fec093"/>
      <path id="Path_3877" data-name="Path 3877" d="M332.327,234.406V216H296v18.406a40.528,40.528,0,0,0,36.327,0Z" transform="translate(-155.231 -102.477)" fill="#feb784"/>
      <path id="Path_3878" data-name="Path 3878" d="M347.649,324.286H320.4a35.24,35.24,0,0,1,0,45.409v27.246H229.585V369.7a35.2,35.2,0,0,1-5.228-37.014L220.5,310.663l-15.093-4.717,9.3-39.046,33.041,5.835v10.683a27.246,27.246,0,1,0,54.491,0v-7.566l26.44,4.4a22.713,22.713,0,0,1,18.97,22.392Z" transform="translate(-116.062 -124.485)" fill="#d3669a"/>
      <path id="Path_3879" data-name="Path 3879" d="M370.621,338.066H343.376a35.24,35.24,0,0,1,0,45.409v27.246H258.54c33.983-23.982,74.647-60.582,103.641-111.951a22.669,22.669,0,0,1,8.44,17.658Z" transform="translate(-139.034 -138.266)" fill="#cc5e93"/>
      <path id="Path_3880" data-name="Path 3880" d="M337.737,84.327v31.786a40.868,40.868,0,0,1-40.282,40.863c-.194.006-.393.006-.586.006A40.871,40.871,0,0,1,256,116.117V84.327A36.327,36.327,0,0,1,292.327,48h9.082a36.3,36.3,0,0,1,36.327,36.327Z" transform="translate(-137.936 -29.836)" fill="#fec9a3"/>
      <path id="Path_3881" data-name="Path 3881" d="M369.315,85.119v31.786a40.868,40.868,0,0,1-40.282,40.863,40.858,40.858,0,0,0,22.118-36.322V76.037a40.7,40.7,0,0,0-9.513-26.207,36.332,36.332,0,0,1,27.677,35.289Z" transform="translate(-169.514 -30.628)" fill="#fec093"/>
      <path id="Path_3882" data-name="Path 3882" d="M296,120h45.409v9.082H296Z" transform="translate(-155.231 -60.968)" fill="#fec093"/>
      <path id="Path_3883" data-name="Path 3883" d="M128.655,124.327V278.719a36.327,36.327,0,0,1-72.655,0V124.327a36.327,36.327,0,0,1,72.655,0Z" transform="translate(-51.459 -47.132)" fill="#f59898"/>
      <path id="Path_3884" data-name="Path 3884" d="M129.221,141.709V296.1a36.331,36.331,0,0,1-71.911,7.345c23.9-39.478,51.767-97.891,69.312-175.245a36.1,36.1,0,0,1,2.6,13.509Z" transform="translate(-52.025 -64.514)" fill="#ec8c8c"/>
      <g id="Group_384" data-name="Group 384" transform="translate(4.807 81.331)">
        <rect id="Rectangle_234" data-name="Rectangle 234" width="17" height="28" rx="8" transform="translate(0.346 -0.331)" fill="#ebebe9"/>
        <rect id="Rectangle_235" data-name="Rectangle 235" width="18" height="28" rx="8" transform="translate(54.346 -0.331)" fill="#ebebe9"/>
        <rect id="Rectangle_236" data-name="Rectangle 236" width="18" height="27" rx="8" transform="translate(72.346 145.669) rotate(180)" fill="#ebebe9"/>
        <rect id="Rectangle_237" data-name="Rectangle 237" width="17" height="27" rx="8" transform="translate(17.346 145.669) rotate(180)" fill="#ebebe9"/>
      </g>
      <path id="Path_3885" data-name="Path 3885" d="M124.327,186.164a9.082,9.082,0,0,0-9.082,9.082v9.082H97.082v-9.082A9.082,9.082,0,0,0,88,186.164V168h36.327Z" transform="translate(-65.295 -81.723)" fill="#c7c7c5"/>
      <path id="Path_3886" data-name="Path 3886" d="M88,362.164a9.082,9.082,0,0,0,9.082-9.082V344h18.164v9.082a9.082,9.082,0,0,0,9.082,9.082v18.164H88Z" transform="translate(-65.295 -157.822)" fill="#c7c7c5"/>
      <path id="Path_3887" data-name="Path 3887" d="M112,184h9.082v9.082H112Z" transform="translate(-75.673 -88.641)" fill="#b0b0ae"/>
      <path id="Path_3888" data-name="Path 3888" d="M112,376h9.082v9.082H112Z" transform="translate(-75.673 -171.659)" fill="#b0b0ae"/>
      <path id="Path_3889" data-name="Path 3889" d="M88,80h36.327V98.164a9.082,9.082,0,0,1-9.082,9.082H97.082A9.082,9.082,0,0,1,88,98.164Z" transform="translate(-65.295 -43.673)" fill="#fec9a3"/>
      <path id="Path_3890" data-name="Path 3890" d="M293.409,24A45.409,45.409,0,0,0,248,69.409v90.818a61.185,61.185,0,0,0,27.246,50.909V78.491L311.573,46.7l22.7,31.786h4.541V69.409A45.409,45.409,0,0,0,293.409,24Z" transform="translate(-134.477 -19.459)" fill="#ffb531"/>
      <path id="Path_3891" data-name="Path 3891" d="M338.818,78.491H248v-22.7A31.786,31.786,0,0,1,279.786,24h27.246a31.786,31.786,0,0,1,31.786,31.786Z" transform="translate(-134.477 -19.459)" fill="#4d5e78"/>
      <path id="Path_3892" data-name="Path 3892" d="M338.164,24H320a31.786,31.786,0,0,1,31.786,31.786v22.7H369.95v-22.7A31.786,31.786,0,0,0,338.164,24Z" transform="translate(-165.609 -19.459)" fill="#44546c"/>
      <path id="Path_3893" data-name="Path 3893" d="M288,88h45.409v18.164H288Z" transform="translate(-151.772 -47.132)" fill="#556a8a"/>
      <path id="Path_3894" data-name="Path 3894" d="M317.623,56a13.623,13.623,0,0,1,13.623,13.623v4.541H304V69.623A13.623,13.623,0,0,1,317.623,56Z" transform="translate(-158.69 -33.295)" fill="#353f52"/>
      <path id="Path_3895" data-name="Path 3895" d="M404.541,128H400v27.246h4.541a13.623,13.623,0,1,0,0-27.246Z" transform="translate(-200.199 -64.427)" fill="#feb784"/>
      <path id="Path_3896" data-name="Path 3896" d="M261.355,167.275l-7.4-1.233a65.446,65.446,0,0,0,2.928-19.309V110.784a18.164,18.164,0,0,0-.039-35.185,4.527,4.527,0,0,0,.039-.568v-22.7A36.368,36.368,0,0,0,220.555,16H193.31a36.368,36.368,0,0,0-36.327,36.327v23.28a18.173,18.173,0,0,0,0,35.179v44.847l-27.246-4.809V93.2a40.78,40.78,0,0,0-11.944-28.9l-.047-.046a43.209,43.209,0,0,0-6.173-5.029V52.327a4.541,4.541,0,0,0-4.541-4.541H70.7a4.541,4.541,0,0,0-4.541,4.541v6.918A40.86,40.86,0,0,0,48,93.2V247.587a40.868,40.868,0,0,0,81.737,0V199.863l18.709,5.822,3.139,17.912a39.733,39.733,0,0,0,5.4,39.212v25.646h9.082V261.21A4.541,4.541,0,0,0,165,258.289a30.667,30.667,0,0,1,0-39.563l-5.918-4.985-2.164-12.347a4.541,4.541,0,0,0-3.115-3.549l-11.039-3.458,7.3-30.762,7.464,1.327a65.158,65.158,0,0,0,28.728,46.5,4.541,4.541,0,0,0,7.06-3.778v-4.038a31.82,31.82,0,0,0,45.409-28.7v-2.214l21.126,3.511a18.188,18.188,0,0,1,15.2,17.957V211.26H256.882v-4.541H247.8V215.8a4.541,4.541,0,0,0,1.068,2.925,30.667,30.667,0,0,1,0,39.563,4.541,4.541,0,0,0-1.064,2.921v27.246h9.082V262.809a39.726,39.726,0,0,0,3.9-42.468h14.261v68.114h9.082v-94.27a27.251,27.251,0,0,0-22.773-26.911ZM75.246,56.868h27.246V70.491a4.546,4.546,0,0,1-4.541,4.541H79.786a4.546,4.546,0,0,1-4.541-4.541ZM57.082,102.277h9.082v18.164H57.082Zm0,118.064h9.082v18.164H57.082Zm31.786,59.032a31.822,31.822,0,0,1-31.786-31.786h9.082a9.082,9.082,0,0,0,7.853-4.541h29.7a9.082,9.082,0,0,0,7.853,4.541h9.082A31.822,31.822,0,0,1,88.868,279.373ZM102.491,224.1v9.86H75.246V224.1a13.647,13.647,0,0,0,9.082-12.845v-4.541h9.082v4.541a13.646,13.646,0,0,0,9.082,12.845Zm18.164,14.4h-9.082V220.341h9.082Zm0-27.246h-9.082a9.064,9.064,0,0,0-7.25,3.633,4.532,4.532,0,0,1-1.832-3.633v-9.082a4.541,4.541,0,0,0-4.541-4.541H79.786a4.541,4.541,0,0,0-4.541,4.541v9.082a4.532,4.532,0,0,1-1.832,3.633,9.064,9.064,0,0,0-7.25-3.633H57.082V129.523h9.082a9.064,9.064,0,0,0,7.25-3.633,4.532,4.532,0,0,1,1.832,3.633V138.6a4.541,4.541,0,0,0,4.541,4.541H97.95a4.541,4.541,0,0,0,4.541-4.541v-9.082a4.532,4.532,0,0,1,1.832-3.636,9.064,9.064,0,0,0,7.25,3.636h9.082ZM75.246,116.678v-9.86h27.246v9.86a13.646,13.646,0,0,0-9.082,12.845v4.541H84.327v-4.541A13.647,13.647,0,0,0,75.246,116.678Zm45.409,3.763h-9.082V102.277h9.082ZM111.573,93.2a9.082,9.082,0,0,0-7.853,4.541h-29.7A9.082,9.082,0,0,0,66.164,93.2H57.082A31.792,31.792,0,0,1,66.176,70.96,13.637,13.637,0,0,0,79.786,84.114H97.95A13.637,13.637,0,0,0,111.562,70.92,31.737,31.737,0,0,1,120.655,93.2Zm22.492,98.5-4.329-1.329v-30.32l11.362,2Zm22.917-90.646a9.178,9.178,0,0,1-1.873-1.434,9.058,9.058,0,0,1,1.873-14.269Zm27.246,97.3a56.137,56.137,0,0,1-17.993-37.583c0-.04-.006-.081-.01-.12-.108-1.117-.161-2.384-.161-3.877v-77.2h18.164Zm4.541-127.858V61.409H225.1v9.082Zm9.082-18.164a9.082,9.082,0,0,1,18.164,0Zm29.516,27.246H243.26v22.7a37.406,37.406,0,0,1-1.566,10.64,36.757,36.757,0,0,1-18.629,21.9,36.178,36.178,0,0,1-29.756,1.121V79.573Zm2.27,95.359a22.663,22.663,0,0,1-36.327,18.122V145.587a45.239,45.239,0,0,0,27.246,0v16.4a9.057,9.057,0,0,0,7.621,8.977l1.46.242Zm18.164-28.2a56.186,56.186,0,0,1-2.9,17.8l-15.263-2.543V141.576A45.942,45.942,0,0,0,247.8,122.055Zm0-76.242H234.178V56.868a4.541,4.541,0,0,0-4.541-4.541H225.1a18.164,18.164,0,0,0-36.327,0h-4.541a4.541,4.541,0,0,0-4.541,4.541V70.491H166.064V52.327A27.276,27.276,0,0,1,193.31,25.082h27.246A27.276,27.276,0,0,1,247.8,52.327Zm4.541,13.623a9.082,9.082,0,1,1,0,18.164Z" transform="translate(-48 -16)"/>
      <path id="Path_3897" data-name="Path 3897" d="M344.993,184.934l-4.576-7.844c-4.274,2.492-10.29,3.922-16.505,3.922H320v9.082h3.911C331.8,190.094,339.289,188.261,344.993,184.934Z" transform="translate(-165.609 -85.653)"/>
      <circle id="Ellipse_100" data-name="Ellipse 100" cx="6.5" cy="6.5" r="6.5" transform="translate(173.153 64)"/>
      <path id="Path_3898" data-name="Path 3898" d="M112,184h9.082v9.082H112Z" transform="translate(-75.673 -88.641)"/>
      <path id="Path_3899" data-name="Path 3899" d="M112,376h9.082v9.082H112Z" transform="translate(-75.673 -171.659)"/>
    </g>
  </g>
</svg>
