<svg xmlns="http://www.w3.org/2000/svg" width="385" height="385" viewBox="0 0 385 385">
  <g id="avw" transform="translate(-5192 -2650)">
    <circle id="Ellipse_79" data-name="Ellipse 79" cx="192.5" cy="192.5" r="192.5" transform="translate(5192 2650)" fill="#f0f0f1"/>
    <g id="Filled_outline" data-name="Filled outline" transform="translate(5262.83 2712)">
      <path id="Path_3828" data-name="Path 3828" d="M428.31,132.9V120H400v93.02h28.31l4.167-9.724a34.963,34.963,0,0,0,1.975-21.458C430.83,165.736,428.31,149.406,428.31,132.9Z" transform="translate(-205.871 -71.468)" fill="#8f4d2e"/>
      <path id="Path_3829" data-name="Path 3829" d="M273.158,192.266h0a34.975,34.975,0,0,0-4.167,34.764l4.167,9.724h28.31V184.177L293.379,168Z" transform="translate(-139.694 -95.202)" fill="#8f4d2e"/>
      <path id="Path_3830" data-name="Path 3830" d="M369.33,361.508V276.576a20.222,20.222,0,0,0-20.222-20.222H324.843V224H292.488v32.355H268.222A20.222,20.222,0,0,0,248,276.576v84.931" transform="translate(-130.714 -122.891)" fill="#fec9a3"/>
      <path id="Path_3831" data-name="Path 3831" d="M368.355,240.393V224H336v16.393a36.1,36.1,0,0,0,32.355,0Z" transform="translate(-174.226 -122.891)" fill="#feb784"/>
      <path id="Path_3832" data-name="Path 3832" d="M368.8,88.355v28.31a36.4,36.4,0,0,1-72.8,0V88.355A32.355,32.355,0,0,1,328.355,56h8.089A32.355,32.355,0,0,1,368.8,88.355Z" transform="translate(-154.448 -39.823)" fill="#fec9a3"/>
      <path id="Path_3833" data-name="Path 3833" d="M404.9,88.355v28.31a36.413,36.413,0,0,1-23.518,34.053,36.213,36.213,0,0,0,7.341-21.92V88.355A36.442,36.442,0,0,0,369.01,56h3.534A32.355,32.355,0,0,1,404.9,88.355Z" transform="translate(-190.548 -39.823)" fill="#fec093"/>
      <path id="Path_3834" data-name="Path 3834" d="M368.976,72.443v8.089h-8.089a47.588,47.588,0,0,1-22.9-24.883l-1.37-3.428-4.8,2.133L319.21,59.962a31.983,31.983,0,0,0-18.988,29.215,31.978,31.978,0,0,1-7.41,20.468L280,125.02V72.443A40.424,40.424,0,0,1,320.443,32h8.089a40.443,40.443,0,0,1,40.443,40.443Z" transform="translate(-146.537 -27.956)" fill="#95573a"/>
      <path id="Path_3835" data-name="Path 3835" d="M440,128h4.044a12.133,12.133,0,0,1,12.133,12.133h0a12.133,12.133,0,0,1-12.133,12.133H440Z" transform="translate(-225.65 -75.424)" fill="#feb784"/>
      <path id="Path_3836" data-name="Path 3836" d="M369.33,308.222v84.931H248V308.222A20.222,20.222,0,0,1,268.222,288l2.715,4.075a45.347,45.347,0,0,0,75.457,0L349.109,288A20.227,20.227,0,0,1,369.33,308.222Z" transform="translate(-130.714 -154.537)" fill="#f59898"/>
      <path id="Path_3837" data-name="Path 3837" d="M382.888,320.623v84.931H275.42c33.32-19.671,75.988-50.65,106.007-92.474A20.025,20.025,0,0,1,382.888,320.623Z" transform="translate(-144.272 -166.938)" fill="#ec8c8c"/>
      <path id="Path_3838" data-name="Path 3838" d="M391.112,72.443v8.089h-8.089a47.579,47.579,0,0,1-22.9-24.883l-1.37-3.428-4.044,1.795-.758.339a36.629,36.629,0,0,0-5.859-7.649A36.263,36.263,0,0,0,324.77,36.125,40.3,40.3,0,0,1,342.58,32h8.089q2.047,0,4.044.2a40.007,40.007,0,0,1,8.089,1.658,40.453,40.453,0,0,1,28.31,38.588Z" transform="translate(-168.674 -27.956)" fill="#8f4d2e"/>
      <rect id="Rectangle_228" data-name="Rectangle 228" width="113" height="113" transform="translate(4.17 121)" fill="#f35244"/>
      <path id="Path_3839" data-name="Path 3839" d="M145.153,280,40,385.153H145.153Z" transform="translate(-27.867 -150.581)" fill="#ea4a3b"/>
      <rect id="Rectangle_229" data-name="Rectangle 229" width="32" height="113" transform="translate(85.17 121)" fill="#de4132"/>
      <path id="Path_3840" data-name="Path 3840" d="M96.266,352.532H72V312.089L84.133,304l12.133,8.089Z" transform="translate(-43.69 -162.448)" fill="#ffb531"/>
      <path id="Path_3841" data-name="Path 3841" d="M398.067,148.133A6.067,6.067,0,1,0,392,142.066,6.067,6.067,0,0,0,398.067,148.133Z" transform="translate(-201.916 -79.379)"/>
      <path id="Path_3842" data-name="Path 3842" d="M368.266,184h-8.089a4.044,4.044,0,1,1-8.089,0H344a12.133,12.133,0,0,0,24.266,0Z" transform="translate(-178.182 -103.113)"/>
      <path id="Path_3843" data-name="Path 3843" d="M436.606,384.045c5.68,9.621,4.21,22.377-3.658,31.742a4.045,4.045,0,0,0-.948,2.6V438.61h8.089V419.817c9.229-11.873,10.667-27.718,3.483-39.884Z" transform="translate(-221.694 -199.994)"/>
      <path id="Path_3844" data-name="Path 3844" d="M283.625,384.045l-6.965-4.112c-7.184,12.167-5.747,28.011,3.483,39.884V438.61h8.089V418.388a4.044,4.044,0,0,0-.948-2.6C279.415,406.422,277.944,393.667,283.625,384.045Z" transform="translate(-142.634 -199.994)"/>
      <path id="Path_3845" data-name="Path 3845" d="M246.608,156.73a39.012,39.012,0,0,0,1.921-23.258,247.767,247.767,0,0,1-5.207-31.28,16.161,16.161,0,0,0-.839-27.483V64.443a4.016,4.016,0,0,0-.367-1.675A44.554,44.554,0,0,0,198,24h-8.089a44.538,44.538,0,0,0-44.488,44.488v51.268a39.09,39.09,0,0,0-4.128,36.976,24.409,24.409,0,0,0-3.961,2.886V145.33a4.044,4.044,0,0,0-4.044-4.044H109.02V133.2a24.247,24.247,0,0,0-36.4-21,24.247,24.247,0,0,0-36.4,21v8.089H20.044A4.044,4.044,0,0,0,16,145.33V258.572a4.044,4.044,0,0,0,4.044,4.044H137.33V177.685a16.2,16.2,0,0,1,14.1-16.04l1.425,2.137a49.386,49.386,0,0,0,82.183,0l1.425-2.137a16.2,16.2,0,0,1,14.1,16.04v84.931h8.089V177.685a24.273,24.273,0,0,0-12.052-20.955ZM129.242,177.685v71.123l-8.089-8.089V149.375h8.089Zm-16.177,63.034-8.089,8.089V149.375h8.089Zm4.044,7.395,6.413,6.414H110.7ZM100.931,133.2v8.089H84.754V133.2a24.146,24.146,0,0,0-5.406-15.245A16.172,16.172,0,0,1,100.931,133.2ZM60.488,173.109l4.044,2.7V210.04H48.355V175.8l4.044-2.7v4.576h8.089Zm12.133-50.595A16.108,16.108,0,0,1,76.665,133.2v8.089H68.576V133.2a16.108,16.108,0,0,1,4.044-10.683ZM44.31,133.2a16.171,16.171,0,0,1,21.583-15.245A24.149,24.149,0,0,0,60.488,133.2v8.089H44.31ZM24.089,149.375H36.222v8.089H44.31v-8.089H52.4v14.013l-10.332,6.888a4.044,4.044,0,0,0-1.8,3.365v40.443a4.044,4.044,0,0,0,4.044,4.044H68.576a4.044,4.044,0,0,0,4.044-4.044V173.641a4.044,4.044,0,0,0-1.8-3.365l-10.332-6.888V149.375H76.665v8.089h8.089v-8.089H96.887V254.527h-72.8Zm216.55-14.124a30.972,30.972,0,0,1-1.6,18.62,24.273,24.273,0,0,0-4.647-.451H214.173V135.855a40.14,40.14,0,0,0,20.02-30.968h.2c.357,0,.708-.016,1.062-.038a259.3,259.3,0,0,0,5.183,30.4Zm-61.076-5.437a32.216,32.216,0,0,1-16.387-18.857l2.224-2.679.029-.036a4.49,4.49,0,0,0,.361-.472,36.075,36.075,0,0,0,7.264-15.655,6.067,6.067,0,1,0,1.023-11.251A27.957,27.957,0,0,1,190.318,59.7l13.575-6.033A51.553,51.553,0,0,0,226.306,79v21.839a32.341,32.341,0,0,1-46.742,28.971Zm54.831-49.193a8.089,8.089,0,1,1,0,16.177Zm0-12.133v4.044h-3.067a43.484,43.484,0,0,1-20.117-22.339l-1.082-2.706V34.176A36.457,36.457,0,0,1,234.395,68.488Zm-80.887,0a36.44,36.44,0,0,1,36.4-36.4s10.8.082,12.133.23V45.637L187.031,52.31a36.049,36.049,0,0,0-21.39,32.911A27.984,27.984,0,0,1,159.17,103.1l-3.517,4.22c-.019.021-.036.043-.054.065l-2.091,2.5Zm-.873,55.088L157.291,118a40.281,40.281,0,0,0,16.438,17.856v17.562H153.508a24.246,24.246,0,0,0-4.648.452,30.976,30.976,0,0,1,3.775-30.295Zm41.316,54.109a41.2,41.2,0,0,1-32.778-16.177h16.6a4.044,4.044,0,0,0,4.044-4.044V139.415a40.292,40.292,0,0,0,24.266,0v18.048a4.044,4.044,0,0,0,4.044,4.044h16.6A41.2,41.2,0,0,1,193.951,177.685Z" transform="translate(-16 -24)"/>
    </g>
  </g>
</svg>
