<svg xmlns="http://www.w3.org/2000/svg" width="362" height="640" viewBox="0 0 362 640">
  <g id="background" transform="translate(2)">
    <g id="Group_340" data-name="Group 340">
      <rect id="Rectangle_200" data-name="Rectangle 200" width="362" height="640" transform="translate(-2)" fill="#eef5ff"/>
      <path id="Intersection_1" data-name="Intersection 1" d="M1094,1789.5a159.982,159.982,0,0,1,12.624-62.5H1254v223A160.5,160.5,0,0,1,1094,1789.5Z" transform="translate(-894 -1727)" fill="#dbeaff"/>
      <path id="Intersection_2" data-name="Intersection 2" d="M935.765,2338.748V2048.5a114.878,114.878,0,0,1,15.25,9.037,177.092,177.092,0,0,1,16.43,12.809,202.322,202.322,0,0,1,19.237,19.35,234.164,234.164,0,0,1,38.212,61.59c12.421,28.932,20.287,61.756,23.381,97.562a540.171,540.171,0,0,0,7.654,56.552,316.281,316.281,0,0,0,8.29,33.348Zm351.578-273.8c-33.114-11.163-71.575-14.451-108.77-17.632-28.191-2.41-54.817-4.687-77.761-10.209-12.3-2.961-22.453-6.594-31.029-11.105a78.561,78.561,0,0,1-12.544-8.136,62.213,62.213,0,0,1-10.184-10.269c-12.559-16.133-16.317-38.29-11.489-67.738,1.771-10.8,3.082-21.531,3.9-31.907.78-9.928,1.126-19.783,1.03-29.29a277.761,277.761,0,0,0-5.1-51.035c-5.4-27.228-15.065-52.143-28.732-74.056a194.218,194.218,0,0,0-17.853-24.253,175.587,175.587,0,0,0-16.329-16.559,122.93,122.93,0,0,0-15.706-12.009h338V2067.62C1292.368,2066.7,1289.871,2065.8,1287.343,2064.946Z" transform="translate(-935.265 -1700.248)" fill="#e5f0ff"/>
    </g>
    <path id="Intersection_3" data-name="Intersection 3" d="M1085,1767a134.248,134.248,0,0,1,14.59-61H1254v196.508a146.7,146.7,0,0,1-27,2.492C1148.576,1905,1085,1843.215,1085,1767Z" transform="translate(-894 -1706)" fill="#eef5ff"/>
  </g>
</svg>
