<svg xmlns="http://www.w3.org/2000/svg" width="46.243" height="61.477" viewBox="0 0 46.243 61.477">
  <g id="leaderboard_quiz" transform="translate(-660.587 -361.492)">
    <path id="Path_253" data-name="Path 253" d="M692.932,450.044H678.669v11.313h14.263Z" transform="translate(-8.743 -42.814)" fill="#643829"/>
    <rect id="Rectangle_134" data-name="Rectangle 134" width="4.919" height="3.933" transform="translate(679.271 403.297)" fill="#fcc600"/>
    <path id="Path_254" data-name="Path 254" d="M673.869,471.947H671.8l-3.571,4.427h19.655v-4.427Z" transform="translate(-3.695 -53.404)" fill="#f0791f"/>
    <path id="Path_255" data-name="Path 255" d="M684.19,395.426V361.492h-23.6l14.382,41.8h4.3v-7.871Z" fill="#fcc600"/>
    <rect id="Rectangle_135" data-name="Rectangle 135" width="4.919" height="7.871" transform="translate(679.271 395.426)" fill="#fcc600"/>
    <path id="Path_256" data-name="Path 256" d="M706.284,461.357h13.278V450.044H706.284Z" transform="translate(-22.094 -42.814)" fill="#4d2a17"/>
    <rect id="Rectangle_136" data-name="Rectangle 136" width="3.934" height="3.933" transform="translate(684.19 403.297)" fill="#fbe128"/>
    <path id="Path_257" data-name="Path 257" d="M721.405,471.947H706.284v4.427h18.692Z" transform="translate(-22.094 -53.404)" fill="#ed6204"/>
    <path id="Path_258" data-name="Path 258" d="M706.284,361.492v41.8h8.26l14.38-41.8Z" transform="translate(-22.094)" fill="#fbe128"/>
    <rect id="Rectangle_137" data-name="Rectangle 137" width="8.853" height="0.491" transform="translate(679.271 403.297)" fill="#dba703"/>
  </g>
</svg>
