<svg xmlns="http://www.w3.org/2000/svg" width="228.308" height="147.001" viewBox="0 0 228.308 147.001">
  <g id="quiz" transform="translate(-531.9 -430.296)">
    <g id="shadow" transform="translate(531.9 549.56)">
      <path id="Path_285" data-name="Path 285" d="M756.892,669.484c-17.219-14.925-77.485-5.97-77.485-5.97-4.3.914-8.009,1.819-11.183,2.711,0,0-17.444,4.378-25.838,2.513-6.718-1.493-25.15-3.463-34.894.4a100.057,100.057,0,0,0-13.745-3.74s-46.129-6.855-59.309,4.569,28.666,13.709,40.693,14.565c5.752.41,21.942-1.467,31.683-4.724,7.594,2.294,21.439,1.934,28.9.5,11.62-2.238,17.455.12,30.566,3.229,12.779,3.512,30.667,5.462,37.448,4.979C719.441,687.394,774.111,684.409,756.892,669.484Z" transform="translate(-531.9 -660.85)" fill="#606060" opacity="0.12" style="mix-blend-mode: multiply;isolation: isolate"/>
    </g>
    <g id="object" transform="translate(546.625 430.296)">
      <g id="Group_186" data-name="Group 186" transform="translate(0)">
        <g id="Group_176" data-name="Group 176" transform="translate(0 54.198)">
          <g id="Group_172" data-name="Group 172" transform="translate(40.205 5.371)">
            <g id="Group_171" data-name="Group 171">
              <g id="Group_170" data-name="Group 170">
                <g id="Group_169" data-name="Group 169">
                  <path id="Path_286" data-name="Path 286" d="M683.106,636.16v20.973H679.94l-1.979-12.663-1.781-9.695Z" transform="translate(-656.475 -588.567)" fill="#cab5a1"/>
                  <path id="Path_287" data-name="Path 287" d="M669.165,633.245l-1.187,9.1L666.4,656.988l-3.166-.2V645.512l-1.583-11.476Z" transform="translate(-649.459 -587.829)" fill="#cab5a1"/>
                  <path id="Path_288" data-name="Path 288" d="M658.609,574.557s3.113-1.407,5.726,3.235,9.976,18.282,12.125,25.9-4.107,3.907-9.806,6.383-10.562,3.819-11.443.368S644.735,578.2,658.609,574.557Z" transform="translate(-644.398 -559.403)" fill="#b26650"/>
                  <g id="Group_168" data-name="Group 168">
                    <g id="Group_167" data-name="Group 167" transform="translate(4.19 3.022)">
                      <path id="Path_289" data-name="Path 289" d="M655.179,553.256c-3.456-4.507-9.236-.51-8.983,4.424.144,2.806,2.643,7.17,5.875,6.481.266.419.74,1.217,1.226,1.342.526.135,1.521-.748,1.918-1.08a.778.778,0,0,0,.267-.33,1.455,1.455,0,0,0-.247-.824,4.64,4.64,0,0,0,.913-.712,5.4,5.4,0,0,0,1.272-4.752A10.834,10.834,0,0,0,655.179,553.256Z" transform="translate(-646.187 -551.29)" fill="#eacdb0"/>
                    </g>
                    <path id="Path_290" data-name="Path 290" d="M647.219,549.7s-4.285,1.728-4.028,3.578c.388,2.781.462,4.673.878,6.3l-3.4-1.423-2.571-4.923s-.223-4.306,1.894-5.355a60.984,60.984,0,0,1,6.638-2.433l3.669.621,2.564-.546.187,7.894S651.134,548.027,647.219,549.7Z" transform="translate(-638.087 -545.449)" fill="#5c3c30"/>
                  </g>
                  <path id="Path_291" data-name="Path 291" d="M687.168,677.995l1.781,1.781-.791,1.187-3.561-1.187v-1.781Z" transform="translate(-660.537 -609.43)" fill="#8c9498"/>
                  <path id="Path_292" data-name="Path 292" d="M666.052,678.951l-.66,2.605-2.176.791-1.187-.594,1.843-2.939Z" transform="translate(-649.644 -609.826)" fill="#8c9498"/>
                </g>
              </g>
            </g>
          </g>
          <g id="Group_175" data-name="Group 175">
            <path id="Path_293" data-name="Path 293" d="M573.436,606.859a19.3,19.3,0,0,0,36.49-4.432l19.275-7.643a19.3,19.3,0,0,0,29.614-21.776l.032,0-12.579-31.726-.038.007a11.093,11.093,0,0,0-21.055,4.692l-1,14.705L590.22,574.143,579.413,564.12a11.094,11.094,0,0,0-18.55,11.011l-.032.021,12.579,31.726Z" transform="translate(-560.366 -535.067)" fill="#2e4661"/>
            <path id="Path_294" data-name="Path 294" d="M573.436,630.793s-13.666-37.46,3.842-44.4a11.091,11.091,0,0,0-16.415,12.718l-.032.021,12.576,31.717Z" transform="translate(-560.366 -559.043)" fill="#283d54"/>
            <path id="Path_295" data-name="Path 295" d="M691.519,608.69l4.791-1.9a1.073,1.073,0,0,1,1.394.6l1.9,4.79a1.073,1.073,0,0,0,1.394.6l4.79-1.9a1.073,1.073,0,0,0,.6-1.394l-1.9-4.79a1.074,1.074,0,0,1,.6-1.394l4.69-1.86a1.074,1.074,0,0,0,.6-1.394l-1.9-4.79a1.073,1.073,0,0,0-1.394-.6l-4.69,1.86a1.074,1.074,0,0,1-1.394-.6l-1.86-4.69a1.073,1.073,0,0,0-1.394-.6l-4.79,1.9a1.073,1.073,0,0,0-.6,1.394l1.86,4.69a1.073,1.073,0,0,1-.6,1.394l-4.79,1.9a1.074,1.074,0,0,0-.6,1.394l1.9,4.79A1.074,1.074,0,0,0,691.519,608.69Z" transform="translate(-622.048 -561.85)" fill="#283d54"/>
            <g id="Group_173" data-name="Group 173" transform="translate(17.422 48.356)">
              <circle id="Ellipse_30" data-name="Ellipse 30" cx="3.579" cy="3.579" r="3.579" transform="translate(8.949 21.569) rotate(-88.114)" fill="#283d54"/>
              <circle id="Ellipse_31" data-name="Ellipse 31" cx="3.579" cy="3.579" r="3.579" transform="translate(11.898 10.539) rotate(-66.627)" fill="#283d54"/>
              <circle id="Ellipse_32" data-name="Ellipse 32" cx="3.579" cy="3.579" r="3.579" transform="translate(0 10.258)" fill="#283d54"/>
              <circle id="Ellipse_33" data-name="Ellipse 33" cx="3.579" cy="3.579" r="3.579" transform="translate(2.624 6.571) rotate(-66.627)" fill="#283d54"/>
            </g>
            <path id="Path_296" data-name="Path 296" d="M694.209,609.853l4.79-1.9a1.074,1.074,0,0,1,1.394.6l1.9,4.791a1.074,1.074,0,0,0,1.394.6l4.79-1.9a1.073,1.073,0,0,0,.6-1.394l-1.9-4.79a1.074,1.074,0,0,1,.6-1.394l4.69-1.86a1.073,1.073,0,0,0,.6-1.394l-1.9-4.79a1.073,1.073,0,0,0-1.394-.6l-4.69,1.86a1.074,1.074,0,0,1-1.394-.6l-1.86-4.691a1.073,1.073,0,0,0-1.393-.6l-4.79,1.9a1.074,1.074,0,0,0-.6,1.394l1.86,4.691a1.074,1.074,0,0,1-.6,1.394l-4.79,1.9a1.074,1.074,0,0,0-.6,1.394l1.9,4.79A1.074,1.074,0,0,0,694.209,609.853Z" transform="translate(-623.347 -562.411)" fill="#ffdb8c"/>
            <g id="Group_174" data-name="Group 174" transform="translate(17.688 48.834)">
              <circle id="Ellipse_34" data-name="Ellipse 34" cx="3.579" cy="3.579" r="3.579" transform="translate(9.471 15.561) rotate(-13.142)" fill="#ffdb8c"/>
              <circle id="Ellipse_35" data-name="Ellipse 35" cx="3.579" cy="3.579" r="3.579" transform="translate(13.024 10.662) rotate(-66.627)" fill="#ffdb8c"/>
              <circle id="Ellipse_36" data-name="Ellipse 36" cx="3.579" cy="3.579" r="3.579" transform="translate(0 15.825) rotate(-66.627)" fill="#ffdb8c"/>
              <circle id="Ellipse_37" data-name="Ellipse 37" cx="3.579" cy="3.579" r="3.579" transform="matrix(0.887, -0.462, 0.462, 0.887, 3.628, 3.308)" fill="#ffdb8c"/>
            </g>
            <path id="Path_297" data-name="Path 297" d="M712.9,626.235a18.277,18.277,0,0,1-8.525,1.212,16.035,16.035,0,0,0,19.141-24.195A18.362,18.362,0,0,1,712.9,626.235Z" transform="translate(-629.878 -567.98)" fill="#385575"/>
            <path id="Path_298" data-name="Path 298" d="M701.653,536.719h0a11.094,11.094,0,0,0-16.911,9.259l-.973,14.265S685.268,543.215,701.653,536.719Z" transform="translate(-619.933 -535.067)" fill="#283d54"/>
            <path id="Path_299" data-name="Path 299" d="M622,601.778l14.763-5.814,14.763-5.814.4-5.621-17,6.771-17.055,6.641Z" transform="translate(-588.124 -558.942)" fill="#283d54"/>
          </g>
          <path id="Path_300" data-name="Path 300" d="M650.63,579.879s-15.721,10.564.03,20.884l3.8,2.173,1.81-1.811-7.966-10.863,3.078-5.854Z" transform="translate(-600.568 -556.698)" fill="#b26650"/>
          <path id="Path_301" data-name="Path 301" d="M668.095,574.2s9.541-2.633,9.194,12.362c.016,5.761.016,8.839.016,8.839H674.59l-3.078-13.7Z" transform="translate(-612.367 -553.87)" fill="#b26650"/>
          <path id="Path_302" data-name="Path 302" d="M680.632,615.35,680.3,617.7l.905,1.086h1.086l.151-3.44Z" transform="translate(-618.259 -573.82)" fill="#eacdb0"/>
          <path id="Path_303" data-name="Path 303" d="M666.707,621.5l1.735.8.181,1.992-.905.181-1.856-2.127Z" transform="translate(-611.29 -576.791)" fill="#eacdb0"/>
        </g>
        <g id="Group_185" data-name="Group 185" transform="translate(91.646)">
          <g id="Group_184" data-name="Group 184">
            <path id="Path_304" data-name="Path 304" d="M816.225,464.428l-22.451,3.621-19.735-6.7-3.44,4.526,22.165,10.949,17.485-.991Z" transform="translate(-753.493 -445.286)" fill="#a1bdcc"/>
            <path id="Path_305" data-name="Path 305" d="M876.995,478.3l10.848,18.572,13.375,12.349-3.6,4.851-15.744-10.38L869.831,487.6Z" transform="translate(-801.393 -453.466)" fill="#a1bdcc"/>
            <g id="Group_179" data-name="Group 179" transform="translate(39.645 19.156)">
              <g id="Group_178" data-name="Group 178" transform="translate(6.341 38.899)">
                <g id="Group_177" data-name="Group 177">
                  <path id="Path_306" data-name="Path 306" d="M827.111,544.937l-.683,29.149,5.048,37.653,4.224.05,3.079-34.651,6.192-34.614Z" transform="translate(-826.428 -542.523)" fill="#8c9498"/>
                  <path id="Path_307" data-name="Path 307" d="M837.9,675.4l-.027,2.284-4.6,2.23-2.257-2.311,2.311-2.257Z" transform="translate(-828.643 -606.637)" fill="#3a3029"/>
                </g>
                <path id="Path_308" data-name="Path 308" d="M868.714,677.577l-3.632,3.087.908,1.816,6.719-1.453v-3.451Z" transform="translate(-845.086 -607.714)" fill="#3a3029"/>
                <path id="Path_309" data-name="Path 309" d="M856.065,565.708l3.019,28.253,3.984,28.162,5.682-.27-.207-29.215,3.42-27.1L863.93,561.8Z" transform="translate(-840.734 -551.828)" fill="#8c9498"/>
              </g>
              <path id="Path_310" data-name="Path 310" d="M837.009,467.359s-7.59,3.625-14.086,17.911c-6.615,14.547-8.753,34.716-8.753,34.716s38.592,12.206,38.692,5.507c0,0,8.727-52.992-8.629-56.746C843.444,468.577,837.485,467.089,837.009,467.359Z" transform="translate(-814.17 -467.327)" fill="#a1bdcc"/>
              <path id="Path_311" data-name="Path 311" d="M843.991,467.694c-4,6.854-7.765,14.968-11.838,21.778-2.414,4.035-3.058,8.511-3.954,13.042l-2.674,13.514-1.13,5.71,16.278,4.039c-.184-5.633-.507-11.263-.587-16.9-.073-5.2-.478-11.078,1.174-16.078.8-2.433,1.644-4.86,2.461-7.291,1.5-4.461,2.536-9.095,4.073-13.542a23.074,23.074,0,0,0,.076-3.376Z" transform="translate(-819.106 -467.504)" fill="#fff"/>
            </g>
            <g id="Group_180" data-name="Group 180" transform="translate(51.668)">
              <path id="Path_312" data-name="Path 312" d="M857.423,458.381l3.929-.41a19.744,19.744,0,0,0-.229-3.138c1.09-.39,2.349-.972,2.533-2.115a3.275,3.275,0,0,0-.07-1.086q-.4-2.225-.793-4.452a3.971,3.971,0,0,0-.47-1.48,3.344,3.344,0,0,0-2.35-1.255,8.139,8.139,0,0,0-6.581,1.64,3.562,3.562,0,0,0-1.105,1.474,4.834,4.834,0,0,0,.176,2.822q.344,1.281.687,2.562c.263.982.643,2.1,1.592,2.463a8.406,8.406,0,0,1,1.556.42C857.1,456.332,857,457.528,857.423,458.381Z" transform="translate(-844.519 -437.065)" fill="#eacdb0"/>
              <path id="Path_313" data-name="Path 313" d="M848.181,452.637l3.194,4.529-1.14-4.415Z" transform="translate(-842.61 -441.08)" fill="#3a3029"/>
              <path id="Path_314" data-name="Path 314" d="M837.417,436.847a12.639,12.639,0,0,1,.3-2.98c.339-1.6,2.217-2.328,3.846-2.451,3.519-.267,6.905-1.885,10.351-.676,1.969.691,4.609.843,6.394,1.824a5.248,5.248,0,0,1,1.807,1.764,7.91,7.91,0,0,1,.066,8.365,11.347,11.347,0,0,1-1.223,1.558,8.473,8.473,0,0,1-3.3,2.638c-.036-1.141.984-4.746.1-5.676-1.4-1.477-4.541-.943-6.265-.568-1.88.408-3.551,1.75-5.416,2.044a7.034,7.034,0,0,1-4.2-1.126A5.337,5.337,0,0,1,837.417,436.847Z" transform="translate(-837.412 -430.296)" fill="#3a3029"/>
            </g>
            <g id="Group_183" data-name="Group 183" transform="translate(0 8.732)">
              <path id="Path_315" data-name="Path 315" d="M835.782,497.714A19.3,19.3,0,0,0,808.039,473.6l-18.589-9.186a19.295,19.295,0,0,0-36.007-7.388l-.025-.021L738.3,487.6l.031.023a11.093,11.093,0,0,0,17.592,12.484L767.508,491l32.743,16.18-.2,14.738a11.093,11.093,0,0,0,20.6,6.391l.037.01,15.12-30.6Z" transform="translate(-737.531 -447.175)" fill="#2e4661"/>
              <path id="Path_316" data-name="Path 316" d="M894.245,544.915s-18.647,35.247-35.534,26.9a11.091,11.091,0,0,0,20.44,3.661l.037.01L894.3,544.9Z" transform="translate(-796.026 -494.348)" fill="#283d54"/>
              <path id="Path_317" data-name="Path 317" d="M798.586,484.909l-4.619-2.283a1.074,1.074,0,0,1-.487-1.438l2.283-4.62a1.073,1.073,0,0,0-.487-1.438l-4.619-2.283a1.074,1.074,0,0,0-1.438.487l-2.283,4.62a1.074,1.074,0,0,1-1.438.487l-4.523-2.235a1.074,1.074,0,0,0-1.438.487l-2.283,4.62a1.073,1.073,0,0,0,.487,1.438l4.523,2.236a1.073,1.073,0,0,1,.487,1.438l-2.235,4.524a1.074,1.074,0,0,0,.487,1.438l4.62,2.283a1.074,1.074,0,0,0,1.438-.487l2.235-4.524a1.074,1.074,0,0,1,1.438-.487l4.619,2.283a1.073,1.073,0,0,0,1.438-.487l2.283-4.619A1.073,1.073,0,0,0,798.586,484.909Z" transform="translate(-756.651 -459.514)" fill="#283d54"/>
              <g id="Group_181" data-name="Group 181" transform="translate(68.713 36.954)">
                <circle id="Ellipse_38" data-name="Ellipse 38" cx="3.579" cy="3.579" r="3.579" transform="translate(9.657 2.295) rotate(-18.703)" fill="#283d54"/>
                <circle id="Ellipse_39" data-name="Ellipse 39" cx="3.579" cy="3.579" r="3.579" transform="translate(0 5.681) rotate(-18.703)" fill="#283d54"/>
                <circle id="Ellipse_40" data-name="Ellipse 40" cx="3.579" cy="3.579" r="3.579" transform="matrix(0.947, -0.321, 0.321, 0.947, 12.56, 11.887)" fill="#283d54"/>
                <circle id="Ellipse_41" data-name="Ellipse 41" cx="3.579" cy="3.579" r="3.579" transform="matrix(0.947, -0.321, 0.321, 0.947, 3.269, 15.223)" fill="#283d54"/>
              </g>
              <path id="Path_318" data-name="Path 318" d="M797.646,482.133l-4.619-2.283a1.073,1.073,0,0,1-.487-1.438l2.283-4.619a1.074,1.074,0,0,0-.487-1.438l-4.62-2.283a1.073,1.073,0,0,0-1.438.487L786,475.178a1.073,1.073,0,0,1-1.438.487l-4.523-2.235a1.074,1.074,0,0,0-1.438.487l-2.283,4.62a1.074,1.074,0,0,0,.487,1.438l4.524,2.235a1.074,1.074,0,0,1,.487,1.438l-2.235,4.523a1.073,1.073,0,0,0,.487,1.438l4.619,2.283a1.073,1.073,0,0,0,1.438-.487l2.235-4.523a1.074,1.074,0,0,1,1.438-.487l4.619,2.283a1.073,1.073,0,0,0,1.438-.487l2.283-4.619A1.073,1.073,0,0,0,797.646,482.133Z" transform="translate(-756.197 -458.174)" fill="#ffdb8c"/>
              <g id="Group_182" data-name="Group 182" transform="translate(68.227 36.477)">
                <circle id="Ellipse_42" data-name="Ellipse 42" cx="3.579" cy="3.579" r="3.579" transform="translate(10.616)" fill="#ffdb8c"/>
                <circle id="Ellipse_43" data-name="Ellipse 43" cx="3.579" cy="3.579" r="3.579" transform="matrix(0.947, -0.321, 0.321, 0.947, 0, 4.722)" fill="#ffdb8c"/>
                <circle id="Ellipse_44" data-name="Ellipse 44" cx="3.579" cy="3.579" r="3.579" transform="matrix(0.947, -0.321, 0.321, 0.947, 12.56, 10.929)" fill="#ffdb8c"/>
                <circle id="Ellipse_45" data-name="Ellipse 45" cx="3.579" cy="3.579" r="3.579" transform="translate(3.269 14.264) rotate(-18.703)" fill="#ffdb8c"/>
              </g>
              <path id="Path_319" data-name="Path 319" d="M794.869,457.229a18.287,18.287,0,0,1,6.613,5.515,16.035,16.035,0,0,0-30.786,2.007A18.362,18.362,0,0,1,794.869,457.229Z" transform="translate(-753.54 -449.539)" fill="#385575"/>
              <path id="Path_320" data-name="Path 320" d="M737.889,534.907h0a11.094,11.094,0,0,0,18.205,6.348l11.24-8.837S753.692,542.716,737.889,534.907Z" transform="translate(-737.704 -488.322)" fill="#283d54"/>
              <path id="Path_321" data-name="Path 321" d="M828.3,539.35l-14.209-7.062-14.209-7.062-4.443,3.468,16.42,8.084,16.358,8.208Z" transform="translate(-765.484 -484.851)" fill="#283d54"/>
            </g>
            <path id="Path_322" data-name="Path 322" d="M923.285,541.158c.362.089,3.077-1.9,3.077-1.9v-4.164L922.2,533.1l-1.448,3.621,3.125,3.078Z" transform="translate(-825.972 -479.92)" fill="#eacdb0"/>
          </g>
          <path id="Path_323" data-name="Path 323" d="M766.4,458.779l.439,4.081.466-1,3.8.543,1.448-2.173-3.44-3.078Z" transform="translate(-751.466 -443.258)" fill="#eacdb0"/>
        </g>
      </g>
    </g>
  </g>
</svg>
